<svg xmlns="http://www.w3.org/2000/svg" viewBox="0 0 53.9 91.63"><defs><style>.cls-1{fill:#236092;}.cls-2{fill:#fff;}.cls-3{fill:#ffc629;}</style></defs><g id="Layer_2" data-name="Layer 2"><g id="Layer_1-2" data-name="Layer 1"><path class="cls-1" d="M7.36,63a2.45,2.45,0,0,1-2.75,2.14H3.74l-.26,2.51H2l.7-6.75H5.15C6.76,60.94,7.49,61.73,7.36,63ZM4.71,64c.67,0,1.16-.25,1.24-1s-.52-.89-1.24-.89H4.05L3.86,64Z"/><path class="cls-1" d="M9.27,66,8.6,67.69H7l3.06-6.78h1.57l1.65,6.78H11.76L11.43,66Zm1.9-1.11L10.7,62.6l-.94,2.27Z"/><path class="cls-1" d="M17.05,62.15l-.57,5.54H15l.57-5.54h-2l.13-1.21h5.39L19,62.15Z"/><path class="cls-1" d="M21.12,63.61h2.32l-.13,1.21H21l-.17,1.66h2.95l-.12,1.21H19.26L20,60.94h4.34l-.13,1.21H21.27Z"/><path class="cls-1" d="M29.53,65.12,30,60.94h1.44l-.7,6.75H29.22L27,63.56l-.42,4.13H25.09l.7-6.75h1.46Z"/><path class="cls-1" d="M35.5,62.15l-.58,5.54H33.48l.58-5.54h-2l.14-1.21H37.6l-.13,1.21Z"/><path class="cls-1" d="M39.57,63.61h2.31l-.13,1.21H39.44l-.17,1.66h2.95l-.12,1.21H37.71l.7-6.75h4.35l-.13,1.21H39.72Z"/><path class="cls-1" d="M44.24,60.94h2.4c2.31,0,3.14,1.4,2.94,3.38a3.49,3.49,0,0,1-3.84,3.37H43.53Zm.84,5.64h.68c1.26,0,2.15-.42,2.36-2.26s-.53-2.27-1.84-2.27h-.72Z"/><path class="cls-1" d="M51.16,66.24a.69.69,0,0,1,.7.78.9.9,0,0,1-.87.77.68.68,0,0,1-.68-.77A.88.88,0,0,1,51.16,66.24Z"/><path class="cls-1" d="M12,75a2.45,2.45,0,0,1-2.74,2.14H8.41l-.26,2.51H6.71l.7-6.75H9.82C11.43,72.91,12.15,73.7,12,75ZM9.38,76c.67,0,1.15-.24,1.24-.95s-.52-.89-1.24-.89H8.72L8.53,76Z"/><path class="cls-1" d="M18,75a2.11,2.11,0,0,1-1.66,1.92l1.48,2.79H16L14.78,77h-.42l-.27,2.62H12.65l.71-6.75h2.5C17.48,72.91,18.11,73.63,18,75Zm-2.61.89c.7,0,1.13-.2,1.2-.89s-.35-.83-1.14-.83h-.76l-.18,1.72Z"/><path class="cls-1" d="M22.62,72.82c1.85,0,3,1,2.72,3.32s-1.5,3.62-3.71,3.62c-1.84,0-2.91-1.05-2.66-3.37S20.4,72.82,22.62,72.82Zm-.75,5.74c1.26,0,1.82-.61,2-2.42.17-1.61-.27-2.12-1.44-2.12s-1.82.59-2,2.37C20.27,78,20.7,78.56,21.87,78.56Z"/><path class="cls-1" d="M28.79,77.55l2.09-4.64h1.56l-3.31,6.78h-1.2l-1.79-6.78H27.7Z"/><path class="cls-1" d="M34.4,75.58h2.32l-.13,1.21H34.27l-.17,1.66h2.95l-.12,1.21H32.54l.7-6.75h4.35l-.13,1.21H34.55Z"/><path class="cls-1" d="M42.81,77.09l.44-4.18h1.44L44,79.66H42.49l-2.26-4.13-.43,4.13H38.37l.7-6.75h1.46Z"/><path class="cls-1" d="M46.5,78.21a.7.7,0,0,1,.69.78.9.9,0,0,1-.87.77.68.68,0,0,1-.68-.77A.89.89,0,0,1,46.5,78.21Z"/><path class="cls-1" d="M5.32,87a2.45,2.45,0,0,1-2.75,2.14H1.7l-.26,2.51H0l.71-6.75h2.4C4.72,84.88,5.45,85.67,5.32,87Zm-2.65.94c.67,0,1.16-.24,1.24-.94.09-.85-.52-.89-1.24-.89H2l-.19,1.83Z"/><path class="cls-1" d="M11.26,86.92A2.1,2.1,0,0,1,9.6,88.84l1.48,2.79H9.31L8.07,89H7.65l-.27,2.62H5.94l.71-6.75H9.16C10.78,84.88,11.4,85.6,11.26,86.92Zm-2.61.89c.71,0,1.13-.21,1.2-.89s-.35-.83-1.14-.83H8l-.18,1.72Z"/><path class="cls-1" d="M14.14,87.55h2.32l-.13,1.21H14l-.17,1.66h2.95l-.12,1.21H12.28L13,84.88h4.35l-.13,1.21H14.29Z"/><path class="cls-1" d="M20,87.55h2.32l-.13,1.21H19.84l-.29,2.87H18.11l.7-6.75h4.35L23,86.09H20.12Z"/><path class="cls-1" d="M25.36,87.55h2.32l-.14,1.21H25.23l-.17,1.66h3l-.12,1.21H23.5l.7-6.75h4.35l-.13,1.21H25.51Z"/><path class="cls-1" d="M34.64,86.92A2.1,2.1,0,0,1,33,88.84l1.48,2.79H32.69L31.45,89H31l-.28,2.62H29.32L30,84.88h2.51C34.16,84.88,34.78,85.6,34.64,86.92ZM32,87.81c.71,0,1.13-.21,1.2-.89s-.35-.83-1.14-.83h-.75l-.18,1.72Z"/><path class="cls-1" d="M41,86.92a2.11,2.11,0,0,1-1.66,1.92l1.48,2.79H39L37.79,89h-.42l-.27,2.62H35.66l.71-6.75h2.51C40.5,84.88,41.12,85.6,41,86.92Zm-2.61.89c.71,0,1.13-.21,1.2-.89s-.35-.83-1.14-.83h-.75l-.19,1.72Z"/><path class="cls-1" d="M43.87,87.55h2.31l-.13,1.21H43.73l-.17,1.66h2.95l-.12,1.21H42l.71-6.75h4.35l-.13,1.21H44Z"/><path class="cls-1" d="M48.54,84.88h2.4c2.31,0,3.13,1.4,2.93,3.38A3.48,3.48,0,0,1,50,91.63H47.83Zm.84,5.64h.67c1.26,0,2.16-.42,2.36-2.26S51.89,86,50.58,86h-.73Z"/><circle class="cls-1" cx="26.86" cy="24.12" r="16.59"/><path class="cls-1" d="M31.1,31.07h0"/><path class="cls-1" d="M33.47,11.8h0"/><path class="cls-2" d="M37.1,32.52c.1,0,.21-.14,0-.18-.21.14-.16.55-.19.86a1.8,1.8,0,0,0,.32.06c0-.31,0-.55-.13-.74"/><path class="cls-2" d="M34.34,32.45a1.17,1.17,0,0,1-.21.36c.13,0,.26.2.4.18s.07-.24.07-.31-.15-.2-.26-.23"/><path class="cls-2" d="M24.93,12c-.43.12-.7,0-.91.18-.12.31.05.33.21.37a2.11,2.11,0,0,0,.74-.11c.07-.18.18-.18,0-.44"/><path class="cls-2" d="M29.42,14.08l-.17.14c0-.08,0-.16-.14-.24,0,.07-.08.13-.14.07,0,.14-.09.29.1.36a.5.5,0,0,0,.19.29.63.63,0,0,1,.28-.54.17.17,0,0,0-.12-.08"/><path class="cls-2" d="M32.81,11.59a.71.71,0,0,0,.22-.15.18.18,0,0,1-.08-.19c.15-.1-.2,0-.12,0s0,0,0,.3"/><path class="cls-2" d="M37.1,34.52c.1-.14.34.07.36-.18,0,.08-.16-.13-.18-.18a2.38,2.38,0,0,1-.06-.68,2.67,2.67,0,0,1-.4,0,.28.28,0,0,1-.26.13,3.17,3.17,0,0,1-1.82-.36c-.36,1,.55,1.53.91,2.36h.54c1.06,0,.05-.16.18-.36s.73.15.73.18c.11-.23-.14-.7,0-.91"/><path class="cls-2" d="M40.92,23.62a2.41,2.41,0,0,1,0-1.62c-.65.54-.4.13-.55-.2,0,0-.32-.13-.36-.18-.26-.28-.54-.53-.55-.55a2.54,2.54,0,0,1-.18-.91c-.34-.26-.94-.26-1.09-.72.13-.24-.09-.65,0-.91-.86-.12-.71-.27-1-.38s-.38,0-.5,0-.17-.35-.18-.37-.31.06-.37,0,.07-.35-.18-.36-.1-.46-.18-.73c0-.06-.32-.28-.36-.36a9.78,9.78,0,0,1-.37-1.82c-.46-.2-1-.3-1.27-.73s.2-.58.18-.72-.35-.14-.36-.18c-.1-.29.34-.27,0-.55a5,5,0,0,0-.18-.55s-.34-.12-.49-.2c-.24.2-.21,0-.23.15s-.31,1.28-.37,1.87,0,1,0,1.46c0,.16-.17.14-.19.18s.22.23.19.36c0-.06-.18.17-.19.18-.19.31-.17.57-.36.73s-.28.07-.36.18a.58.58,0,0,1-.17-.42,2,2,0,0,1-.85-.47,1.89,1.89,0,0,0-.62,0,1.37,1.37,0,0,0-.22-.3c-.33,0-1-.61-1.25-.61.3-.14.22-.31.32-.55-.17-.07.11-.12.15-.29,0,0,0,0,0-.09-.08-.28.25-.15,0-.36s.51-.88.32-1.07c-.23,0-.17-.29-.25-.45a.8.8,0,0,0-.27.64.56.56,0,0,1-.2-.44,1.91,1.91,0,0,1-.74.25c-.34,0-1.26-.18-1.27-.36,0-.48-.63.49-.47-.29-.32,0-.46,0-.62.11.09.44.49-.18.54.54-.19.14-.28.34-.65.3a3.94,3.94,0,0,0-.77-.05.35.35,0,0,1,0,.12c-.46.37-.54,1.13-1,1.47a1.12,1.12,0,0,1,.33.35,1.19,1.19,0,0,1-.73-.19h0a2.19,2.19,0,0,0-1.1-.33c-.31-.07-.59-.19-.72-.21s0-.28-.18-.19a2.51,2.51,0,0,0-.49,1.32c.09.32-.58-.27-.6-.23-.12.28.11.6.18.73l-.19-.1a.46.46,0,0,1,0,.47h-.18c-.11-.23-.3-.39-.38-.57l-.19,0c-.1.47-.71.57-.91.91s.08.66,0,.91c0,0-.32.31-.36.36a1.46,1.46,0,0,1-.73.55c-.47.15-1.28.39-2,.54-.28.06-.56.16-.73.18,0,0,0,0,0-.07a1.4,1.4,0,0,1-.9.49.53.53,0,0,1,0,.13,1.17,1.17,0,0,0-.29,0,1,1,0,0,1-.34.23,1.88,1.88,0,0,0-.1.46c-.07,0-.05.1-.09.07s-.07,0-.07.13c-.24,0-.2-.1-.17-.26S12.33,20,12.2,20c.17.7-.33,1.19-.36,1.64,0,.23.2.25.18.54s-.16.13-.18.19c0-.16-.18-.37-.18-.37,0,.29.43.59.36.73s-.09,0-.17,0-.4-.56-.55-.56.43.57.41.58.1.15.13.22a2.29,2.29,0,0,1,.55,1c0,.32.49.75.54.91-.14.29.21.6.18.73a2.14,2.14,0,0,0,0,.36,4.29,4.29,0,0,1,.55,1.09s-.21,0-.18.18.21,0,0,.18.2.5.18.55c-.12.3-.64.15-.75.45.32.29.85.73.93.82s.3,0,.36,0,0,.16,0,.18.31,0,.37,0c.84.13.89-.27,1.27-.36.2-.05.53,0,.54-.18s.42-.34.55-.37c1.12-.22,1.39.37,2.39-.07.15-.18.31-.26.33-.47.5-.17.9-.39,1.46-.55s1.11-.11,1.27-.18a.54.54,0,0,1,.18,0c.19,0,.12-.15.18-.18a5.62,5.62,0,0,1,2.19-.18c.17,0,.22.17.36.18s.13.17.18.18c.28.08.62-.05.91,0,.06,0,0,.17.18.18.37,0,.19.35.36.55s.3,0,.37,0,.13.32.18.36.32.26.36.37-.33.35,0,.54a.57.57,0,0,1,.53.2c-.12-.67.68-.6.5-.45a1.42,1.42,0,0,0,.39-.48c.06-.11.21-.15.28-.24s.06-.24.15-.27a.74.74,0,0,1,.07.49c0,.13-.29.09-.33.22a1,1,0,0,1-.18.47c-.12.11-.29,0-.32.06s.07.26.15.33.27,0,.4-.13c.12-.3.43-.64.56-.58s-.11.71-.05.85a2.56,2.56,0,0,1,.76.08c-.15.27.3.45.36.72s-.07.43,0,.54a7.05,7.05,0,0,0,.55.55c.12.09.4-.05.54,0s.14.35.37.37c-.08,0,.13-.17.18-.18s.29.09.36.18.56.17.73.29l.77-.46c0-.29-.44-.15.11-.36.23.17,0,.1,0,.35a.16.16,0,0,1,.07,0c.17.23.58.27.94.36a2,2,0,0,0,.2.31.19.19,0,0,0-.08.13c0,.09.18.18.18.18s.18-.39.09-.41a.21.21,0,0,0-.12,0,.88.88,0,0,0,0-.16l.16.09a1.82,1.82,0,0,1,2.06-.91c.31-.45.64-.89.37-1.45a2.93,2.93,0,0,0,.9-1.82,14,14,0,0,0,1.09-.91c-.27-.16.17-.77.19-1.09,0-.15.17-.15.18-.18.13-.61,0-.83.18-1.09s.08-.26.18-.36c-.24-.14-.31-.62-.36-.91"/><path class="cls-2" d="M29,29.77l-.07,0h0c-.08,0-.18.07-.21.18a.83.83,0,0,0,.94,0c0-.05-.08-.18-.08-.23-.22,0-.38,0-.58,0"/><path class="cls-2" d="M29.74,29.85V30l.23-.1-.23-.06"/><path class="cls-1" d="M5.06,20.21c.07-.4,0-.71-.45-.78s-.6.27-.68.71l-.07.4L5,20.73Zm-.31-1.64c1,.17,1.17,1,1,1.76l-.09.52,1.52.26L7.07,22,3,21.28l.25-1.45c.17-1,.73-1.39,1.52-1.26"/><path class="cls-1" d="M6,16.57c.14-.41.11-.68-.29-.82s-.57.08-.73.54l-.16.43,1,.36Zm0-1.64a1.13,1.13,0,0,1,.81,1.24l2-.44-.36,1-1.83.33-.09.24L8,17.87l-.3.83-3.9-1.39.52-1.45c.33-.94.89-1.2,1.65-.93"/><path class="cls-1" d="M9.2,13.56c.4-.67.24-1.12-.72-1.69s-1.27-.41-1.64.21-.25,1.11.69,1.67,1.3.43,1.67-.19m-3-1.89a1.77,1.77,0,0,1,2.72-.57c1.22.73,1.56,1.73.87,2.89-.58,1-1.51,1.26-2.74.54s-1.55-1.68-.85-2.86"/><path class="cls-1" d="M10,10.8,8.05,9l.6-.65L10.45,10c.57.53.9.53,1.32.07s.39-.77-.18-1.3L9.8,7.15l.6-.65,1.9,1.76a1.49,1.49,0,0,1,0,2.36A1.5,1.5,0,0,1,10,10.8"/><path class="cls-1" d="M14.25,7.81l.34-.24c.63-.45.9-1,.24-1.89S13.64,4.83,13,5.3l-.36.26ZM11.51,5.52l1.2-.86a1.85,1.85,0,0,1,2.85.5A1.9,1.9,0,0,1,15,8.09l-1.1.79Z"/><polygon class="cls-1" points="17.72 5.58 19.3 4.81 19.62 5.48 17.25 6.63 15.44 2.9 16.24 2.51 17.72 5.58"/><polygon class="cls-1" points="18.7 1.45 19.98 2.83 20.25 0.94 21.16 0.65 20.68 3.56 21.16 5.01 20.31 5.29 19.84 3.83 17.75 1.76 18.7 1.45"/><path class="cls-1" d="M25.82,2.47,25.3,1.1,25,2.53Zm-1,.75-.24,1.07-1,.07L24.74.1l1-.06L27.43,4.1l-.95.06-.38-1Z"/><path class="cls-1" d="M27.7,2.58,28,0l.88.1L28.6,2.53c-.1.77.1,1,.72,1.11s.86-.14.95-.91L30.55.3l.88.11L31.13,3a1.49,1.49,0,0,1-1.9,1.39c-1.17-.14-1.65-.8-1.53-1.8"/><path class="cls-1" d="M31.82,3.79a3.43,3.43,0,0,0,1.11.62c.36.11.62,0,.7-.26s-.08-.5-.44-.76c-.61-.45-1.15-.84-.9-1.64s1-.91,1.83-.66a3.47,3.47,0,0,1,1.09.57l-.4.66a2.53,2.53,0,0,0-.9-.52c-.36-.11-.64-.06-.73.22s.2.52.55.76c.65.44,1,1,.8,1.58a1.31,1.31,0,0,1-1.76.78,3.68,3.68,0,0,1-1.33-.73Z"/><polygon class="cls-1" points="37.72 3.45 36.19 6.49 35.4 6.09 36.93 3.05 35.85 2.5 36.18 1.84 39.14 3.33 38.8 3.99 37.72 3.45"/><path class="cls-1" d="M40.08,6.17c.35.26.62.31.87,0s.08-.57-.3-.86L40.27,5l-.62.84Zm1.57.49a1.15,1.15,0,0,1-1.43.41l-.15,2-.87-.64.21-1.85-.21-.15-1,1.29-.71-.52L40,3.88l1.24.92c.8.59.89,1.21.41,1.86"/><path class="cls-1" d="M43.09,9.76l.73-1.26-1.32.63Zm-1.25-.34-1,.48-.65-.71,4-1.75.65.72L42.82,12l-.65-.71.57-.94Z"/><polygon class="cls-1" points="44.06 12.67 45.02 14.14 44.39 14.54 42.96 12.33 46.44 10.07 46.92 10.81 44.06 12.67"/><rect class="cls-1" x="44.46" y="13.85" width="4.15" height="0.89" transform="translate(-1.49 22.23) rotate(-26.46)"/><path class="cls-1" d="M47.48,17.52l1.18-.86-1.46,0Zm-1-.82-1.09.05-.31-.91,4.41,0,.31.92L46.32,19.5,46,18.59l.9-.63Z"/><polygon class="cls-1" points="48.26 22.16 50.81 21.83 50.92 22.71 46.81 23.23 46.69 22.32 49 20.36 46.48 20.68 46.37 19.81 50.48 19.28 50.6 20.17 48.26 22.16"/><path class="cls-1" d="M3.74,29c.15.71.56.92,1.58.7s1.14-.53,1-1.19-.54-.93-1.55-.71-1.16.54-1,1.2M7,28.42a1.65,1.65,0,0,1-1.5,2.14,1.8,1.8,0,0,1-2.45-1.44c-.23-1,.23-1.83,1.53-2.12s2.15.16,2.42,1.42"/><polygon class="cls-1" points="8.44 32.81 6.26 34.49 8.94 33.92 9.31 34.74 5.3 35.39 4.93 34.57 6.9 33.01 4.42 33.43 4.05 32.61 7.2 30.05 7.57 30.87 5.37 32.5 8.07 31.99 8.44 32.81"/><polygon class="cls-1" points="8.93 38.17 10.88 36.74 11.37 37.41 8.22 39.72 7.71 39.02 8.72 36.36 6.79 37.77 6.3 37.1 9.45 34.79 9.95 35.47 8.93 38.17"/><polygon class="cls-1" points="11.31 39.52 12.27 40.45 11.78 40.95 10.82 40.02 10.15 40.71 11.37 41.9 10.89 42.4 9.06 40.63 11.78 37.83 13.59 39.58 13.1 40.09 11.89 38.91 11.31 39.52"/><path class="cls-1" d="M12.77,43.07l.32.22c.6.41,1.15.5,1.75-.38s.4-1.32-.23-1.76l-.34-.24ZM14,39.91l1.14.8a1.73,1.73,0,0,1,.45,2.68,1.79,1.79,0,0,1-2.77.45l-1-.73Z"/><path class="cls-1" d="M19.3,45.43l.08-1.37-.84,1.08Zm-1.19.24-.62.82-.84-.31L19.3,43l.85.31-.1,4.15-.85-.32.08-1Z"/><polygon class="cls-1" points="23.54 46.64 23.97 44.27 24.79 44.42 24.09 48.25 23.24 48.1 22.14 45.47 21.71 47.82 20.89 47.67 21.59 43.83 22.43 43.98 23.54 46.64"/><path class="cls-1" d="M26.17,47.71h.39c.73,0,1.22-.24,1.22-1.31s-.44-1.31-1.2-1.31h-.42Zm-.84-3.25h1.39a1.74,1.74,0,0,1,1.9,1.95,1.79,1.79,0,0,1-2,2H25.34Z"/><rect class="cls-1" x="31.1" y="43.97" width="0.83" height="3.9" transform="translate(-8.78 7.47) rotate(-11.88)"/><polygon class="cls-1" points="35.31 45.27 34.49 43 35.28 42.72 36.59 46.39 35.78 46.68 33.51 44.96 34.31 47.21 33.53 47.49 32.22 43.81 33.01 43.53 35.31 45.27"/><polygon class="cls-1" points="38.35 44.08 37.82 41.3 38.6 40.85 39.26 44.99 38.65 45.34 35.45 42.66 36.23 42.21 38.35 44.08"/><polygon class="cls-1" points="40.4 41.34 41.44 40.49 41.88 41.04 40.84 41.88 41.45 42.63 42.77 41.55 43.21 42.09 41.24 43.7 38.78 40.67 40.73 39.08 41.17 39.62 39.87 40.69 40.4 41.34"/><polygon class="cls-1" points="44.52 38.55 42.7 36.95 43.25 36.32 46.18 38.91 45.61 39.55 42.79 39.14 44.58 40.72 44.03 41.34 41.1 38.76 41.66 38.13 44.52 38.55"/><polygon class="cls-1" points="45.02 34.83 47.74 36.52 47.3 37.23 44.58 35.54 43.98 36.51 43.39 36.14 45.03 33.49 45.63 33.86 45.02 34.83"/><polygon class="cls-1" points="46.89 33.07 47.42 31.84 48.06 32.11 47.53 33.34 48.42 33.72 49.09 32.15 49.73 32.43 48.73 34.76 45.15 33.22 46.14 30.91 46.78 31.19 46.12 32.73 46.89 33.07"/><path class="cls-1" d="M49.68,30.42l.1-.38c.17-.71,0-1.25-1-1.5s-1.38.11-1.56.84l-.1.41Zm-3.36,0,.33-1.35A1.73,1.73,0,0,1,49,27.72a1.78,1.78,0,0,1,1.41,2.42l-.3,1.24Z"/><path class="cls-3" d="M44,25.11a.51.51,0,0,1-.51-.52v0h0a.52.52,0,0,1,1,0v0a.51.51,0,0,1-.52.51Z"/><path class="cls-3" d="M25.39,7a.51.51,0,0,1,.48-.54h0a.51.51,0,1,1,.05,1H25.9A.51.51,0,0,1,25.39,7"/><path class="cls-3" d="M28.11,7.46h0a.52.52,0,0,1-.48-.55.52.52,0,0,1,.55-.48h0a.5.5,0,0,1,.47.55.51.51,0,0,1-.51.48h0"/><path class="cls-3" d="M23.19,7.29a.52.52,0,0,1,.42-.6h0a.52.52,0,0,1,.6.42.51.51,0,0,1-.41.6H23.7a.52.52,0,0,1-.51-.42"/><path class="cls-3" d="M30.24,7.76h0a.5.5,0,0,1-.4-.6.52.52,0,0,1,.61-.41h0a.52.52,0,0,1-.1,1h-.11"/><path class="cls-3" d="M21.06,7.91a.52.52,0,0,1,.33-.65h0a.52.52,0,0,1,.65.33.52.52,0,0,1-.33.65h0l-.16,0a.54.54,0,0,1-.49-.35"/><path class="cls-3" d="M32.32,8.33h0a.52.52,0,0,1,.34-1l0,0A.51.51,0,0,1,33,8a.52.52,0,0,1-.49.35.45.45,0,0,1-.16,0"/><path class="cls-3" d="M19,8.79a.53.53,0,0,1,.24-.69h0a.51.51,0,0,1,.44.93h0a.46.46,0,0,1-.22.06.51.51,0,0,1-.47-.3"/><path class="cls-3" d="M34.3,9.16h0A.51.51,0,0,1,34,8.46a.5.5,0,0,1,.69-.23h0a.52.52,0,0,1-.23,1,.46.46,0,0,1-.23-.06"/><path class="cls-3" d="M17.13,9.93a.51.51,0,0,1,.15-.71l0,0a.52.52,0,1,1,.56.87h0a.47.47,0,0,1-.28.09.53.53,0,0,1-.43-.24"/><path class="cls-3" d="M36.15,10.25l0,0h0a.52.52,0,0,1,.57-.86l0,0a.52.52,0,0,1,.14.72.53.53,0,0,1-.43.22.51.51,0,0,1-.29-.08"/><path class="cls-3" d="M15.39,11.31a.53.53,0,0,1,.06-.73l0,0a.51.51,0,0,1,.73.06.52.52,0,0,1-.06.72l0,0a.53.53,0,0,1-.73-.06"/><path class="cls-3" d="M37.86,11.56l0,0h0a.52.52,0,0,1,.68-.78l0,0a.51.51,0,0,1,0,.72.49.49,0,0,1-.38.18.5.5,0,0,1-.34-.13"/><path class="cls-3" d="M13.85,12.89a.51.51,0,0,1,0-.72l0,0a.51.51,0,0,1,.72,0,.52.52,0,0,1,0,.73l0,0h0a.52.52,0,0,1-.38.17.49.49,0,0,1-.34-.14"/><path class="cls-3" d="M39.38,13.08l0,0a.53.53,0,0,1,0-.73.51.51,0,0,1,.73.05l0,0a.51.51,0,0,1,0,.73.53.53,0,0,1-.34.13.49.49,0,0,1-.38-.18"/><path class="cls-3" d="M12.51,14.67a.51.51,0,0,1-.12-.72l0,0a.51.51,0,1,1,.84.59l0,0a.52.52,0,0,1-.42.22.55.55,0,0,1-.3-.09"/><path class="cls-3" d="M40.69,14.78l0,0a.52.52,0,0,1,.14-.72.51.51,0,0,1,.71.14s0,0,0,0a.5.5,0,0,1-.14.71.49.49,0,0,1-.28.09.51.51,0,0,1-.43-.23"/><path class="cls-3" d="M11.42,16.6a.52.52,0,0,1-.22-.7l0,0a.51.51,0,1,1,.91.48v0h0a.52.52,0,0,1-.7.22"/><path class="cls-3" d="M41.77,16.64l0,0a.52.52,0,0,1,.23-.69.52.52,0,0,1,.7.23s0,0,0,0a.52.52,0,0,1-.23.69.46.46,0,0,1-.23.06.52.52,0,0,1-.46-.29"/><path class="cls-3" d="M10.59,18.65a.51.51,0,0,1-.31-.66v0a.52.52,0,0,1,1,.35v0a.51.51,0,0,1-.48.34.58.58,0,0,1-.18,0"/><path class="cls-3" d="M42.6,18.62v0h0a.53.53,0,0,1,.32-.66.51.51,0,0,1,.65.32s0,0,0,0a.51.51,0,0,1-.31.65l-.17,0a.53.53,0,0,1-.49-.35"/><path class="cls-3" d="M10,20.8a.51.51,0,0,1-.39-.61v0a.51.51,0,0,1,.61-.39.52.52,0,0,1,.39.62v0h0a.5.5,0,0,1-.5.4H10"/><path class="cls-3" d="M43.17,20.69s0,0,0,0a.52.52,0,1,1,1-.21v0a.52.52,0,0,1-.4.61h-.11a.51.51,0,0,1-.5-.42"/><path class="cls-3" d="M9.75,23a.51.51,0,0,1-.46-.56v0a.52.52,0,0,1,.56-.47.53.53,0,0,1,.47.56v0h0A.51.51,0,0,1,9.8,23H9.75"/><path class="cls-3" d="M43.46,22.82v0a.52.52,0,0,1,1-.08v0a.51.51,0,0,1-.48.55h0a.52.52,0,0,1-.52-.48"/><path class="cls-3" d="M9.23,24.72v0a.52.52,0,1,1,1,0v0h0a.52.52,0,0,1-.5.54h0a.52.52,0,0,1-.51-.5"/><path class="cls-3" d="M43.81,26.81a.52.52,0,0,1-.44-.58v0a.51.51,0,1,1,1,.13v0a.52.52,0,0,1-.51.45h-.07"/><path class="cls-3" d="M9.46,27v0a.52.52,0,0,1,.43-.59.51.51,0,0,1,.59.42v0a.53.53,0,0,1-.43.6H10A.52.52,0,0,1,9.46,27"/><path class="cls-3" d="M43.32,29a.52.52,0,0,1-.37-.63v0h0a.51.51,0,0,1,.63-.37.51.51,0,0,1,.36.63v0a.53.53,0,0,1-.5.39l-.13,0"/><path class="cls-3" d="M10,29.21a0,0,0,0,0,0,0,.52.52,0,0,1,1-.3,0,0,0,0,0,0,0,.53.53,0,0,1-.34.65l-.15,0a.51.51,0,0,1-.5-.37"/><path class="cls-3" d="M42.54,31.05a.52.52,0,0,1-.28-.68l0,0a.51.51,0,0,1,.67-.28.52.52,0,0,1,.28.67v0a.53.53,0,0,1-.48.32.71.71,0,0,1-.2,0"/><path class="cls-3" d="M10.79,31.35l0,0a.52.52,0,0,1,.26-.68.5.5,0,0,1,.68.25l0,0h0a.52.52,0,0,1-.26.68.41.41,0,0,1-.21,0,.51.51,0,0,1-.47-.3"/><path class="cls-3" d="M41.51,33a.5.5,0,0,1-.19-.7v0a.52.52,0,0,1,.71-.2.53.53,0,0,1,.19.71l0,0a.52.52,0,0,1-.45.26.47.47,0,0,1-.25-.07"/><path class="cls-3" d="M11.87,33.36l0,0a.51.51,0,1,1,.87-.54l0,0h0a.52.52,0,0,1-.16.71.55.55,0,0,1-.28.07.49.49,0,0,1-.43-.24"/><path class="cls-3" d="M40.23,34.82a.51.51,0,0,1-.1-.72l0,0a.51.51,0,1,1,.82.62l0,0a.54.54,0,0,1-.41.21.51.51,0,0,1-.31-.11"/><path class="cls-3" d="M13.19,35.22l0,0a.51.51,0,0,1,.07-.72.52.52,0,0,1,.73.07s0,0,0,0a.52.52,0,0,1-.4.85.53.53,0,0,1-.4-.19"/><path class="cls-3" d="M38.73,36.45a.51.51,0,0,1,0-.73l0,0a.51.51,0,1,1,.73.72l0,0a.55.55,0,0,1-.37.15.51.51,0,0,1-.36-.15"/><path class="cls-3" d="M14.75,36.89l0,0a.51.51,0,1,1,.71-.74l0,0h0a.51.51,0,0,1,0,.73.52.52,0,0,1-.37.16.52.52,0,0,1-.35-.14"/><path class="cls-3" d="M37,37.88a.51.51,0,0,1,.09-.73l0,0a.53.53,0,0,1,.73.09.52.52,0,0,1-.09.72l0,0a.52.52,0,0,1-.32.11.51.51,0,0,1-.4-.2"/><path class="cls-3" d="M16.5,38.35l0,0a.52.52,0,0,1,.61-.84l0,0a.51.51,0,0,1,.11.72.51.51,0,0,1-.41.21.56.56,0,0,1-.31-.09"/><path class="cls-3" d="M35.16,39.07a.52.52,0,0,1,.18-.7l0,0h0a.52.52,0,0,1,.71.18.53.53,0,0,1-.18.71h0a.5.5,0,0,1-.26.08.52.52,0,0,1-.45-.26"/><path class="cls-3" d="M18.43,39.57l0,0a.51.51,0,0,1,.5-.9h0a.52.52,0,0,1-.25,1,.57.57,0,0,1-.25-.06"/><path class="cls-3" d="M33.16,40a.52.52,0,0,1,.27-.68h0a.52.52,0,0,1,.68.27.51.51,0,0,1-.27.67l0,0a.52.52,0,0,1-.21,0,.51.51,0,0,1-.47-.31"/><path class="cls-3" d="M20.5,40.53l0,0a.52.52,0,0,1,.38-1l0,0a.51.51,0,0,1,.29.66.5.5,0,0,1-.48.33l-.19,0"/><path class="cls-3" d="M31.05,40.69a.51.51,0,0,1,.35-.63h0a.51.51,0,0,1,.63.35.52.52,0,0,1-.35.64h0l-.14,0a.51.51,0,0,1-.49-.38"/><path class="cls-3" d="M22.68,41.21h0a.51.51,0,0,1-.38-.62.52.52,0,0,1,.63-.38h0a.52.52,0,0,1-.12,1l-.13,0"/><path class="cls-3" d="M28.87,41.09a.51.51,0,0,1,.43-.58h0a.52.52,0,0,1,.16,1h-.11a.51.51,0,0,1-.51-.44"/><path class="cls-3" d="M24.93,41.61h0a.52.52,0,0,1-.46-.57.52.52,0,0,1,.57-.45h0a.52.52,0,0,1-.06,1h-.06"/><path class="cls-3" d="M26.65,41.2a.52.52,0,0,1,.51-.52h0a.51.51,0,0,1,.53.5.52.52,0,0,1-.51.53h0a.53.53,0,0,1-.52-.51"/></g></g></svg>