<svg xmlns="http://www.w3.org/2000/svg" viewBox="0 0 52.77 91.47"><defs><style>.cls-1{fill:#236092;}.cls-2{fill:#fff;}.cls-3{fill:#ffc629;}</style></defs><g id="Layer_2" data-name="Layer 2"><g id="Layer_1-2" data-name="Layer 1"><path class="cls-1" d="M7.42,62.87A2.45,2.45,0,0,1,4.67,65H3.8l-.26,2.51H2.1l.7-6.76H5.21C6.83,60.77,7.55,61.56,7.42,62.87Zm-2.65,1c.67,0,1.16-.24,1.24-1S5.5,62,4.77,62H4.11l-.19,1.83Z"/><path class="cls-1" d="M9.17,65.82l-.68,1.71H6.93L10,60.74h1.58l1.65,6.79H11.66l-.34-1.71Zm1.9-1.11-.47-2.28-.94,2.28Z"/><path class="cls-1" d="M16.76,62l-.57,5.54H14.75L15.32,62h-2l.13-1.22h5.39L18.74,62Z"/><path class="cls-1" d="M20.68,63.45H23l-.13,1.21H20.55l-.17,1.66h2.95l-.12,1.21h-4.4l.71-6.76h4.36L23.74,62H20.83Z"/><path class="cls-1" d="M29,65l.44-4.19h1.44l-.7,6.76h-1.5L26.36,63.4l-.42,4.13H24.5l.7-6.76h1.47Z"/><path class="cls-1" d="M34.76,62l-.57,5.54H32.75L33.32,62h-2l.13-1.22h5.4L36.74,62Z"/><path class="cls-1" d="M38.67,63.45H41l-.13,1.21H38.54l-.17,1.66h3l-.12,1.21h-4.4l.7-6.76h4.36L41.74,62H38.83Z"/><path class="cls-1" d="M43.2,60.77h2.41c2.31,0,3.14,1.41,2.94,3.38a3.5,3.5,0,0,1-3.85,3.38H42.5Zm.85,5.65h.67c1.27,0,2.16-.42,2.36-2.27s-.52-2.27-1.83-2.27h-.73Z"/><path class="cls-1" d="M50,66.08a.69.69,0,0,1,.7.78.91.91,0,0,1-.87.77.68.68,0,0,1-.68-.77A.88.88,0,0,1,50,66.08Z"/><path class="cls-1" d="M11.9,74.84A2.45,2.45,0,0,1,9.15,77H8.28L8,79.5H6.57l.71-6.76H9.69C11.3,72.74,12,73.53,11.9,74.84Zm-2.65,1c.67,0,1.16-.24,1.24-1S10,74,9.25,74H8.59L8.4,75.79Z"/><path class="cls-1" d="M17.7,74.78A2.12,2.12,0,0,1,16,76.71l1.48,2.79H15.74L14.5,76.88h-.41l-.28,2.62H12.37l.71-6.76h2.51C17.21,72.74,17.84,73.46,17.7,74.78Zm-2.62.89c.71,0,1.13-.2,1.2-.89S15.93,74,15.14,74h-.75l-.18,1.71Z"/><path class="cls-1" d="M22.2,72.64c1.85,0,3,1,2.73,3.33s-1.51,3.63-3.72,3.63c-1.84,0-2.91-1.06-2.67-3.38S20,72.64,22.2,72.64Zm-.75,5.75c1.26,0,1.82-.6,2-2.42.18-1.61-.27-2.12-1.44-2.12s-1.82.59-2,2.37C19.84,77.83,20.28,78.39,21.45,78.39Z"/><path class="cls-1" d="M28.22,77.38l2.09-4.64h1.56l-3.31,6.79H27.35l-1.78-6.79h1.56Z"/><path class="cls-1" d="M33.68,75.42H36l-.13,1.21H33.55l-.17,1.66h2.95l-.12,1.21h-4.4l.71-6.76h4.36L36.74,74H33.83Z"/><path class="cls-1" d="M42,76.93l.44-4.19h1.44l-.7,6.76h-1.5l-2.27-4.13-.42,4.13H37.5l.7-6.76h1.47Z"/><path class="cls-1" d="M45.49,78.05a.69.69,0,0,1,.7.78.9.9,0,0,1-.87.77.68.68,0,0,1-.68-.77A.88.88,0,0,1,45.49,78.05Z"/><path class="cls-1" d="M5.33,86.81A2.47,2.47,0,0,1,2.57,89H1.7l-.26,2.51H0l.71-6.76H3.12C4.73,84.71,5.46,85.5,5.33,86.81Zm-2.66,1c.68,0,1.16-.24,1.24-1s-.51-.88-1.24-.88H2l-.19,1.83Z"/><path class="cls-1" d="M11.12,86.75a2.12,2.12,0,0,1-1.66,1.93l1.48,2.79H9.17L7.92,88.85H7.51l-.27,2.62H5.8l.7-6.76H9C10.64,84.71,11.26,85.43,11.12,86.75Zm-2.61.89c.71,0,1.13-.2,1.2-.89s-.35-.82-1.14-.82H7.81l-.18,1.71Z"/><path class="cls-1" d="M13.86,87.39h2.32l-.13,1.21H13.73l-.17,1.66h3l-.12,1.21H12l.71-6.76h4.36l-.13,1.22H14Z"/><path class="cls-1" d="M19.55,87.39h2.32l-.13,1.21H19.42l-.3,2.87H17.68l.71-6.76h4.35l-.13,1.22H19.7Z"/><path class="cls-1" d="M24.79,87.39h2.32L27,88.6H24.66l-.18,1.66h3l-.12,1.21h-4.4l.71-6.76H28l-.13,1.22H24.94Z"/><path class="cls-1" d="M33.93,86.75a2.11,2.11,0,0,1-1.66,1.93l1.48,2.79H32l-1.24-2.62h-.42l-.27,2.62H28.61l.7-6.76h2.52C33.45,84.71,34.07,85.43,33.93,86.75Zm-2.61.89c.71,0,1.13-.2,1.2-.89s-.35-.82-1.14-.82h-.76l-.18,1.71Z"/><path class="cls-1" d="M40.13,86.75a2.12,2.12,0,0,1-1.67,1.93L40,91.47H38.17l-1.24-2.62h-.41l-.27,2.62H34.8l.71-6.76H38C39.64,84.71,40.27,85.43,40.13,86.75Zm-2.61.89c.7,0,1.13-.2,1.2-.89s-.36-.82-1.14-.82h-.76l-.18,1.71Z"/><path class="cls-1" d="M42.87,87.39h2.32l-.13,1.21H42.74l-.18,1.66h3l-.12,1.21H41l.71-6.76h4.35l-.13,1.22H43Z"/><path class="cls-1" d="M47.39,84.71H49.8c2.31,0,3.14,1.41,2.94,3.38a3.48,3.48,0,0,1-3.84,3.38H46.69Zm.85,5.65h.68c1.26,0,2.16-.42,2.36-2.27s-.53-2.27-1.84-2.27h-.73Z"/><path class="cls-1" d="M30.54,31.07h0s0,0,0,0"/><path class="cls-1" d="M4.49,20.21c.08-.4,0-.71-.45-.78s-.6.27-.67.71l-.07.4,1.11.19Zm-.3-1.64a1.34,1.34,0,0,1,1,1.76l-.09.52,1.52.26L6.5,22l-4.09-.7.26-1.45c.16-1,.72-1.39,1.52-1.26"/><path class="cls-1" d="M5.38,16.57c.14-.41.11-.68-.29-.82s-.57.08-.73.54l-.15.43,1,.36Zm0-1.64a1.15,1.15,0,0,1,.81,1.24l2-.44-.37,1L6,17.09l-.08.24,1.51.54-.3.83-3.9-1.39.52-1.45c.33-.94.89-1.2,1.66-.93"/><path class="cls-1" d="M8.63,13.56c.4-.67.24-1.12-.72-1.69s-1.27-.41-1.64.21S6,13.19,7,13.75s1.3.43,1.66-.19m-3-1.89a1.77,1.77,0,0,1,2.72-.57A1.91,1.91,0,0,1,9.24,14c-.58,1-1.51,1.26-2.73.54S5,12.85,5.65,11.67"/><path class="cls-1" d="M9.4,10.8,7.49,9l.6-.65L9.88,10c.57.53.91.53,1.33.07s.39-.77-.19-1.3L9.23,7.15l.6-.65,1.91,1.76a1.49,1.49,0,0,1,0,2.36,1.49,1.49,0,0,1-2.35.18"/><path class="cls-1" d="M13.69,7.81,14,7.57c.63-.45.91-1,.24-1.89s-1.19-.85-1.84-.38l-.36.26ZM11,5.52l1.19-.86a1.85,1.85,0,0,1,2.85.5,1.89,1.89,0,0,1-.52,2.93l-1.1.79Z"/><polygon class="cls-1" points="17.16 5.58 18.73 4.81 19.06 5.48 16.68 6.63 14.87 2.9 15.67 2.51 17.16 5.58"/><polygon class="cls-1" points="18.13 1.45 19.42 2.83 19.69 0.94 20.59 0.65 20.12 3.56 20.59 5.01 19.75 5.29 19.27 3.83 17.19 1.76 18.13 1.45"/><path class="cls-1" d="M25.25,2.47,24.73,1.1l-.34,1.43Zm-1,.75L24,4.29l-1,.07L24.18.1l1-.06L26.87,4.1l-1,.06-.38-1Z"/><path class="cls-1" d="M27.13,2.58,27.44,0l.88.1L28,2.53c-.09.77.11,1,.72,1.11s.86-.14.95-.91L30,.3l.88.11L30.56,3a1.49,1.49,0,0,1-1.9,1.39c-1.16-.14-1.65-.8-1.53-1.8"/><path class="cls-1" d="M31.25,3.79a3.43,3.43,0,0,0,1.11.62c.37.11.63,0,.7-.26s-.08-.5-.44-.76c-.6-.45-1.14-.84-.9-1.64s1-.91,1.84-.66a3.53,3.53,0,0,1,1.08.57l-.39.66a2.64,2.64,0,0,0-.91-.52c-.35-.11-.64-.06-.73.22s.2.52.56.76c.64.44,1,1,.79,1.58a1.31,1.31,0,0,1-1.76.78,3.77,3.77,0,0,1-1.33-.73Z"/><polygon class="cls-1" points="37.16 3.45 35.62 6.49 34.84 6.09 36.36 3.05 35.28 2.5 35.62 1.84 38.57 3.33 38.24 3.99 37.16 3.45"/><path class="cls-1" d="M39.51,6.17c.35.26.62.31.87,0s.09-.57-.3-.86L39.71,5l-.63.84Zm1.57.49a1.14,1.14,0,0,1-1.42.41l-.15,2-.88-.64.21-1.85-.2-.15-1,1.29L37,7.22l2.47-3.34,1.23.92c.81.59.89,1.21.41,1.86"/><path class="cls-1" d="M42.52,9.76l.74-1.26-1.33.63Zm-1.24-.34-1,.48-.65-.71,4-1.75.65.72L42.25,12l-.64-.71.56-.94Z"/><polygon class="cls-1" points="43.5 12.67 44.45 14.14 43.83 14.54 42.39 12.33 45.87 10.07 46.35 10.81 43.5 12.67"/><rect class="cls-1" x="43.89" y="13.85" width="4.15" height="0.89" transform="translate(-1.55 21.98) rotate(-26.46)"/><path class="cls-1" d="M46.91,17.52l1.19-.86-1.46,0Zm-1-.82-1.1.05-.31-.91,4.41,0,.31.92L45.75,19.5l-.3-.91.89-.63Z"/><polygon class="cls-1" points="47.7 22.16 50.24 21.83 50.35 22.71 46.24 23.23 46.13 22.32 48.43 20.36 45.92 20.68 45.8 19.81 49.92 19.28 50.03 20.17 47.7 22.16"/><path class="cls-1" d="M3.17,29c.16.71.56.92,1.58.7s1.14-.53,1-1.19-.55-.93-1.55-.71-1.17.54-1,1.2m3.27-.61a1.67,1.67,0,0,1-1.51,2.14,1.8,1.8,0,0,1-2.45-1.44c-.23-1,.23-1.83,1.54-2.12s2.15.16,2.42,1.42"/><polygon class="cls-1" points="7.87 32.81 5.69 34.49 8.37 33.92 8.74 34.74 4.74 35.39 4.37 34.57 6.33 33.01 3.86 33.43 3.49 32.61 6.63 30.05 7 30.87 4.8 32.5 7.5 31.99 7.87 32.81"/><polygon class="cls-1" points="8.36 38.17 10.31 36.74 10.8 37.41 7.66 39.72 7.15 39.02 8.15 36.36 6.23 37.77 5.74 37.1 8.88 34.79 9.38 35.47 8.36 38.17"/><polygon class="cls-1" points="10.74 39.52 11.7 40.45 11.21 40.95 10.25 40.02 9.58 40.71 10.81 41.9 10.32 42.4 8.5 40.63 11.22 37.83 13.02 39.58 12.54 40.09 11.33 38.91 10.74 39.52"/><path class="cls-1" d="M12.21,43.07l.32.22c.59.41,1.14.5,1.75-.38s.39-1.32-.23-1.76l-.35-.24Zm1.18-3.16,1.14.8A1.74,1.74,0,0,1,15,43.39a1.79,1.79,0,0,1-2.77.45l-1-.73Z"/><path class="cls-1" d="M18.73,45.43l.08-1.37L18,45.14Zm-1.19.24-.62.82-.84-.31L18.73,43l.85.31-.1,4.15-.84-.32.07-1Z"/><polygon class="cls-1" points="22.97 46.64 23.4 44.27 24.22 44.42 23.52 48.25 22.67 48.1 21.57 45.47 21.15 47.82 20.33 47.67 21.03 43.83 21.86 43.98 22.97 46.64"/><path class="cls-1" d="M25.6,47.71H26c.73,0,1.22-.24,1.22-1.31s-.44-1.31-1.19-1.31H25.6Zm-.84-3.25h1.39a1.75,1.75,0,0,1,1.91,1.95,1.8,1.8,0,0,1-2,2H24.77Z"/><rect class="cls-1" x="30.53" y="43.97" width="0.83" height="3.9" transform="translate(-8.79 7.36) rotate(-11.88)"/><polygon class="cls-1" points="34.74 45.27 33.92 43 34.71 42.72 36.02 46.39 35.21 46.68 32.94 44.96 33.75 47.21 32.96 47.49 31.65 43.81 32.44 43.53 34.74 45.27"/><polygon class="cls-1" points="37.79 44.08 37.25 41.3 38.03 40.85 38.69 44.99 38.08 45.34 34.88 42.66 35.66 42.21 37.79 44.08"/><polygon class="cls-1" points="39.83 41.34 40.87 40.49 41.31 41.04 40.27 41.88 40.88 42.63 42.2 41.55 42.64 42.09 40.67 43.7 38.21 40.67 40.16 39.08 40.61 39.62 39.3 40.69 39.83 41.34"/><polygon class="cls-1" points="43.95 38.55 42.14 36.95 42.69 36.32 45.61 38.91 45.04 39.55 42.22 39.14 44.02 40.72 43.46 41.34 40.54 38.76 41.1 38.13 43.95 38.55"/><polygon class="cls-1" points="44.46 34.83 47.18 36.52 46.73 37.23 44.02 35.54 43.41 36.51 42.82 36.14 44.47 33.49 45.06 33.86 44.46 34.83"/><polygon class="cls-1" points="46.33 33.07 46.86 31.84 47.5 32.11 46.97 33.34 47.85 33.72 48.52 32.15 49.17 32.43 48.16 34.76 44.58 33.22 45.58 30.91 46.22 31.19 45.55 32.73 46.33 33.07"/><path class="cls-1" d="M49.12,30.42l.09-.38c.17-.71,0-1.25-1-1.5s-1.38.11-1.56.84l-.1.41Zm-3.37,0,.33-1.35a1.73,1.73,0,0,1,2.35-1.38,1.79,1.79,0,0,1,1.42,2.42l-.31,1.24Z"/><path class="cls-2" d="M41.71,18.27l-1.07,1.15,0,0L25.88,35.29l-5.13-5.82,5.52-3.07-4.53,2.2-1.07.52-3.05,1.47-6.4-12.38,29.67,0h.84Z"/><path class="cls-1" d="M11.22,18.21l6.4,12.38,3.05-1.47,1.07-.52,4.53-2.2-5.52,3.07,5.13,5.82L40.62,19.44l0,0,1.07-1.15,0,0h-.84Zm6.91,10.86-5-9.71,23.43,0L16,23.85l3.85,4.38Zm2.81-1.37-2.76-3.13L34.9,20.93Zm5,5.87-3.34-3.79,14.26-8Z"/><polygon class="cls-3" points="20.94 27.7 18.18 24.57 34.9 20.93 20.94 27.7"/></g></g></svg>