<svg xmlns="http://www.w3.org/2000/svg" viewBox="0 0 73.72 78.95"><defs><style>.cls-1{fill:#236092;}.cls-2{fill:#fff;}.cls-3{fill:none;}.cls-4{fill:#ffc629;}</style></defs><g id="Layer_2" data-name="Layer 2"><g id="Layer_1-2" data-name="Layer 1"><path class="cls-1" d="M13.15,62.21a2.45,2.45,0,0,1-2.75,2.15H9.53l-.26,2.51H7.83l.7-6.75h2.41C12.56,60.12,13.28,60.9,13.15,62.21Zm-2.65.95c.68,0,1.16-.24,1.24-.95s-.51-.88-1.24-.88H9.84l-.19,1.83Z"/><path class="cls-1" d="M19,62.15a2.12,2.12,0,0,1-1.67,1.93l1.49,2.79H17l-1.24-2.62h-.41l-.27,2.62H13.62l.71-6.75h2.51C18.46,60.12,19.09,60.83,19,62.15ZM16.34,63c.7,0,1.13-.2,1.2-.89s-.36-.82-1.14-.82h-.76L15.46,63Z"/><path class="cls-1" d="M23.46,60c1.84,0,3,1,2.72,3.32S24.68,67,22.47,67c-1.85,0-2.92-1.06-2.68-3.38S21.23,60,23.46,60Zm-.76,5.75c1.26,0,1.82-.61,2-2.43.17-1.61-.28-2.11-1.45-2.11s-1.82.58-2,2.37C21.1,65.2,21.53,65.77,22.7,65.77Z"/><path class="cls-1" d="M30.09,61.33l-.57,5.54H28.07l.58-5.54h-2l.13-1.21h5.4l-.13,1.21Z"/><path class="cls-1" d="M34,62.79h2.32L36.19,64H33.87l-.17,1.66h3l-.13,1.21H32.14l.7-6.75H37.2l-.13,1.21H34.15Z"/><path class="cls-1" d="M43.06,61.53a4.1,4.1,0,0,0-1.53-.3c-1.42,0-2.09.7-2.26,2.32s.22,2.22,1.73,2.22a4.53,4.53,0,0,0,1.82-.46l.08,1.11a5.52,5.52,0,0,1-2.38.56c-2.11,0-2.91-1.59-2.72-3.43S39.13,60,41.4,60a5.42,5.42,0,0,1,2,.35Z"/><path class="cls-1" d="M47.24,61.33l-.57,5.54H45.23l.57-5.54h-2L44,60.12h5.4l-.13,1.21Z"/><path class="cls-1" d="M51.44,60.12l-.71,6.75H49.29l.7-6.75Z"/><path class="cls-1" d="M56,60c1.85,0,3,1,2.72,3.32S57.18,67,55,67c-1.84,0-2.91-1.06-2.67-3.38S53.73,60,56,60Zm-.76,5.75c1.26,0,1.83-.61,2-2.43.17-1.61-.27-2.11-1.44-2.11s-1.83.58-2,2.37C53.6,65.2,54,65.77,55.2,65.77Z"/><path class="cls-1" d="M64,64.3l.44-4.18H65.9l-.71,6.75H63.7l-2.27-4.13L61,66.87H59.56l.71-6.75h1.46Z"/><path class="cls-1" d="M1.61,72.09l1,2.78,1.67-2.78H5.84L3.18,76.36l-.26,2.48H1.48l.26-2.49L0,72.09Z"/><path class="cls-1" d="M9.28,72c1.84,0,3,1,2.72,3.32S10.5,79,8.29,79c-1.85,0-2.92-1.06-2.67-3.38S7.05,72,9.28,72Zm-.76,5.75c1.26,0,1.83-.61,2-2.43.17-1.61-.27-2.11-1.44-2.11s-1.83.58-2,2.37C6.92,77.17,7.35,77.74,8.52,77.74Z"/><path class="cls-1" d="M13,76.32l.45-4.23h1.44l-.42,4c-.13,1.27.2,1.67,1.21,1.67s1.4-.4,1.53-1.67l.42-4h1.45l-.45,4.23A2.74,2.74,0,0,1,15.59,79C13.67,79,12.87,78,13,76.32Z"/><path class="cls-1" d="M27.53,73.5A4.05,4.05,0,0,0,26,73.2c-1.41,0-2.09.7-2.26,2.32s.22,2.22,1.73,2.22a4.49,4.49,0,0,0,1.82-.46l.08,1.11A5.49,5.49,0,0,1,25,79c-2.11,0-2.9-1.59-2.71-3.43S23.6,72,25.88,72a5.49,5.49,0,0,1,2,.35Z"/><path class="cls-1" d="M29.93,77.13l-.68,1.71H27.69l3.06-6.78h1.58L34,78.84H32.42l-.34-1.71ZM31.83,76l-.47-2.28L30.42,76Z"/><path class="cls-1" d="M39.17,76.27l.44-4.18h1.44l-.7,6.75h-1.5l-2.27-4.13-.42,4.13H34.72l.7-6.75h1.47Z"/><path class="cls-1" d="M47.6,73.3,47,78.84H45.59l.57-5.54h-2l.14-1.21h5.39l-.13,1.21Z"/><path class="cls-1" d="M55,74.12a2.11,2.11,0,0,1-1.66,1.93l1.48,2.79H53l-1.24-2.62h-.42l-.27,2.62H49.65l.71-6.75h2.51C54.49,72.09,55.12,72.8,55,74.12ZM52.36,75c.71,0,1.13-.2,1.2-.89s-.35-.82-1.14-.82h-.75L51.49,75Z"/><path class="cls-1" d="M56,76.32l.45-4.23h1.44l-.42,4c-.14,1.27.2,1.67,1.21,1.67s1.4-.4,1.53-1.67l.42-4h1.44l-.44,4.23A2.74,2.74,0,0,1,58.52,79C56.61,79,55.81,78,56,76.32Z"/><path class="cls-1" d="M62.92,77.31a5.36,5.36,0,0,0,2,.43c.62,0,1-.31,1.06-.74s-.3-.74-1-1c-1.12-.4-2.11-.76-2-2.12S64.41,72,65.77,72a5.37,5.37,0,0,1,1.92.37l-.42,1.22a4.28,4.28,0,0,0-1.63-.38c-.6,0-1,.22-1.09.7s.48.71,1.12.91c1.19.37,1.9,1,1.79,2.09a2.4,2.4,0,0,1-2.58,2,5.49,5.49,0,0,1-2.37-.5Z"/><path class="cls-1" d="M71.61,73.3,71,78.84H69.6l.57-5.54h-2l.14-1.21h5.39l-.13,1.21Z"/><path class="cls-2" d="M39.67,30.93c-.34.39-.69.76-1.05,1.12a24.13,24.13,0,0,1-2,1.84c-.3.26-.6.5-.9.73l.38.73.38.74c.3-.22.6-.46.91-.71a28.83,28.83,0,0,0,3.45-3.32c.32-.36.63-.74.94-1.13Z"/><path class="cls-3" d="M23.32,37.61l-.2-.2.09.08Z"/><path class="cls-1" d="M54.19,4.13c-1.51,0-3.2.06-4.84.06a47,47,0,0,1-7.24-.39A26.38,26.38,0,0,1,33.26.33L32.71,0l-.56.33A26.38,26.38,0,0,1,23.3,3.8a46.84,46.84,0,0,1-7.24.39c-1.63,0-3.33,0-4.83-.06l-1.18,0v.05l1.18,0c1.5,0,3.2.06,4.83.06a45.59,45.59,0,0,0,7.24-.39A26.14,26.14,0,0,0,32.15.38l.56-.33.55.33a26.14,26.14,0,0,0,8.85,3.46,45.76,45.76,0,0,0,7.24.39c1.64,0,3.33,0,4.84-.06l1.17,0V4.1Z"/><path class="cls-1" d="M16.4,28.45l0,0c-.1-.17-.2-.34-.29-.52Z"/><path class="cls-1" d="M19.84,33.67a39,39,0,0,1-3.44-5.22l.39.67.58,1c.16.24.31.48.46.72.27.4.53.81.8,1.19,0,0,0,0,0,0l0,.05.45.62c.15.2.29.4.45.6Z"/><path class="cls-1" d="M11.33,14.6c-.23-1.11-.43-2.26-.61-3.45C10.89,12.34,11.1,13.49,11.33,14.6Z"/><path class="cls-1" d="M13,20.89q-.49-1.47-.93-3C12.39,18.91,12.7,19.91,13,20.89Z"/><path class="cls-1" d="M15.25,26.25l0,.09c-.08-.15-.16-.31-.23-.47l-.18-.38c.09.19.18.38.28.57Z"/><path class="cls-1" d="M25.82,39.9l0,0h0Z"/><path class="cls-1" d="M14.27,24.13h0c.08.17.15.33.22.5-.22-.5-.43-1-.64-1.51C14,23.47,14.13,23.8,14.27,24.13Z"/><path class="cls-1" d="M40.65,37.13h0l.22.24.7.79h0c.53-.5,1-1,1.55-1.57Zm14.71-33-1.16,0-2.37,0H47.56c-1.4,0-2.58-.07-3.57-.15l-.57,0-.69-.08-.61-.1A26.14,26.14,0,0,1,33.27.37L32.72,0l-.56.33a26.14,26.14,0,0,1-8.85,3.46l-.61.1L22,4c-1.45.14-3.38.21-5.94.21H13.61l-2.37,0-1.18,0h0l.07,1.16c.08,1.38.2,2.72.36,4,.07.62.15,1.23.24,1.82h0c.18,1.19.38,2.33.61,3.44s.5,2.21.78,3.26h0c.29,1,.6,2,.93,3,.26.77.54,1.52.82,2.24.1.26.21.52.31.77a2.29,2.29,0,0,1,.1.23h0l.12.27s0,.07,0,.11c.09.19.17.39.26.58l.06.13,0,.07a1.42,1.42,0,0,0,.08.18c.09.19.18.38.28.57l.09.19,0,.09.42.82.09.19.24.44.34.62a.08.08,0,0,1,0,0h0l.17.28s0,0,0,.05a.27.27,0,0,1,.06.1l.09.14a.41.41,0,0,0,.05.09l.09.16s0,0,0,0h0c.05.09.1.19.16.28l.28.47,0,0,.22.35.12.19.12.18.26.38.17.26h0l.18.28.18.27,0,0,0,0,.27.37h0l.18.24c.06.07.11.15.16.22l.06.08h0l0,0,.05.07.06.07.1.12.26.36.26.33h0l.26.31,0,0c.11.13.2.27.32.4l.11.14A.69.69,0,0,1,21,35h0l.07.08h0l.74.85c.2.23.41.46.62.68.45.48.9.94,1.36,1.39l.82.77A41,41,0,0,0,31.62,44c.11.07.34.18.63.32l.46.22.47-.22a6.65,6.65,0,0,0,.64-.33,41.63,41.63,0,0,0,5-3.44l.9-.74c.34-.29.66-.57,1-.89h0L40,38.14l-.72-.82,0,0-.75-.86L40.66,36l.06,0,1.91-.41,1.74-.38h0a36.48,36.48,0,0,0,2.38-3.09h0c.26-.37.51-.74.75-1.12h0a45.19,45.19,0,0,0,5.07-10.77,53.6,53.6,0,0,0,1.83-7.51c.19-1.07.35-2.18.48-3.32.16-1.29.28-2.63.36-4l.07-1.16h0ZM23.12,37.4l.09.08.11.12Zm26-27.4c-.55,9.54-3.57,16.23-7.3,20.92h0l-.46.57c-.15.19-.31.37-.47.55h0l-.06.07c-.47.53-.94,1-1.42,1.49l-.23.22-.68.64-.39.34-.66.55c-.31.25-.61.49-.91.71a29.7,29.7,0,0,1-3,2l-.46.24-.36.16-.35-.17-.46-.23a29.26,29.26,0,0,1-4-2.82c-.29-.23-.57-.47-.86-.73l-.3-.28c-.43-.39-.86-.81-1.29-1.25l-.12-.13c-.11-.12-.23-.24-.33-.36l-.55-.6-.59-.7c-.3-.36-.59-.74-.88-1.13l-.54-.76C19.27,24.74,16.82,18.5,16.32,10l-.05-.88.88,0c1.09,0,2.32,0,3.51,0A33.92,33.92,0,0,0,25.9,8.9a18.93,18.93,0,0,0,6.4-2.51l.42-.25.41.25A19,19,0,0,0,39.54,8.9a33.84,33.84,0,0,0,5.24.28c1.18,0,2.41,0,3.5,0l.88,0Z"/><path class="cls-1" d="M14.71,25.11l.06.13-.06-.12Z"/><path class="cls-1" d="M14.88,25.49c.09.19.18.38.28.57l-.1-.19Z"/><path class="cls-1" d="M16.38,28.41c-.1-.17-.2-.34-.29-.52l-.29-.54L15.61,27a.37.37,0,0,0,0-.11l-.27-.55.42.82C15.93,27.59,16.15,28,16.38,28.41Z"/><path class="cls-1" d="M25.82,39.9l0,0h0Z"/><path class="cls-2" d="M33.55,27.15h0l.14.08Zm-1.74-1.39a1.19,1.19,0,0,1,.09.15v.93a3.3,3.3,0,0,1-.41.72l-.13.19h0l.13-.19a3.3,3.3,0,0,0,.41-.72v-.93A.44.44,0,0,0,31.81,25.76Zm.09-9.17h0ZM30.2,25a.74.74,0,0,0,0-.15c0,.07,0,.13,0,.15l0,.27h0Zm-1.45-1.81h0a.86.86,0,0,1,.28.73l0,.3h0l0-.3A.86.86,0,0,0,28.75,23.17Zm-1-.41a1.16,1.16,0,0,0-.32-.75,1.18,1.18,0,0,1,.31.75l0,.3h0Zm-5.32-6.93a.87.87,0,0,1,.27-.66h0a.87.87,0,0,0-.27.66v6.36a.9.9,0,0,0,.24.64h0a.9.9,0,0,1-.24-.64Z"/><path class="cls-1" d="M29.08,34.13a20.35,20.35,0,0,0,1.64,1.25C30.18,35,29.63,34.58,29.08,34.13Z"/><path class="cls-4" d="M48.28,9.14c-1.09,0-2.32,0-3.5,0a33.84,33.84,0,0,1-5.24-.28,19,19,0,0,1-6.41-2.51l-.41-.25-.42.25A18.93,18.93,0,0,1,25.9,8.9a33.92,33.92,0,0,1-5.24.28c-1.19,0-2.42,0-3.51,0l-.88,0,.05.88c.5,8.5,2.95,14.74,6.11,19.31l.54.76c.29.39.58.77.88,1.13l.59.7.55.6c.1.12.22.24.33.36l.12.13c.43.44.86.86,1.29,1.25l.3.28c.29.26.57.5.86.73a29.26,29.26,0,0,0,4,2.82l.46.23.35.17.36-.16.46-.24a29.7,29.7,0,0,0,3-2c.3-.22.6-.46.91-.71l.66-.55.39-.34c.23-.21.46-.42.68-.64l.23-.22c.48-.47.95-1,1.42-1.49l.06-.07h0c.16-.18.32-.36.47-.55l.46-.57h0c3.73-4.69,6.75-11.38,7.3-20.92l0-.88Zm-8.6,21.78h0l-.51.56c-.17.19-.35.37-.53.55h0a23.87,23.87,0,0,1-2,1.83c-.3.26-.6.5-.9.73a26.26,26.26,0,0,1-2.21,1.55l-.27.17-.55.33,0,0c-.17-.09-.34-.2-.51-.31l-.27-.17-.07,0-1.12-.75a20.35,20.35,0,0,1-1.64-1.25L29,34.05c-.35-.29-.71-.59-1.06-.91l-.05,0c-.36-.33-.72-.68-1.07-1-.18-.18-.36-.37-.53-.56l-.18-.2h0L26,31.21c-.28-.29-.54-.6-.81-.92a1.84,1.84,0,0,1-.17-.22c-.2-.24-.4-.49-.59-.75C21.22,25,18.64,19.07,18,10.78c.85,0,1.76,0,2.65,0a34.44,34.44,0,0,0,5.51-.31,19.57,19.57,0,0,0,5.74-2l.27-.15.27-.15L32.72,8l.28.16.27.14c.09.06.18.1.27.15a19.36,19.36,0,0,0,5.72,2,34.59,34.59,0,0,0,5.52.31c.88,0,1.79,0,2.65,0C46.72,20.17,43.5,26.57,39.68,30.92Z"/><path class="cls-2" d="M29.08,34.13c.55.45,1.1.87,1.64,1.25A20.35,20.35,0,0,1,29.08,34.13Z"/><path class="cls-4" d="M31.91,26.82s0,0,0,0v-.93s0,0,0,0A.36.36,0,0,1,32,26,1.42,1.42,0,0,1,31.91,26.82Z"/><path class="cls-4" d="M33.54,8.49v3.62h0a1.26,1.26,0,0,0-.27,0,1.23,1.23,0,0,0-.27,0,2,2,0,0,0-.55.07,1.38,1.38,0,0,0-.27.08l-.12,0-.14.06V8.49l.27-.15.27-.15L32.72,8,33,8.2l.27.14C33.36,8.4,33.45,8.44,33.54,8.49Z"/><polygon class="cls-2" points="32.01 28.11 32.01 28.12 32 28.11 32.01 28.11"/><path class="cls-3" d="M38.71,24.18a1,1,0,0,1-.41.66.75.75,0,0,1-1-.14l-.39-.34,0,.52c0,.76-.35.92-.45,1a.72.72,0,0,1-1-.3l-.15-.2-.37.18,0,.2a.87.87,0,0,1-.33,1.05c-.44.26-.8,0-1.09-.26l0,0-.06-.05-.21-.17L33,26.06l.08.62a1,1,0,0,1-.08.57.67.67,0,0,1-.2.26,1,1,0,0,1-.35.15.61.61,0,0,1-.27,0l-.12,0a1.51,1.51,0,0,0,.12-.2,2,2,0,0,0,.27-.67V26s0-.05,0-.07a1.45,1.45,0,0,0-.26-.47,1.15,1.15,0,0,0-.27-.27,1.92,1.92,0,0,0-1.23-.48h0a1.26,1.26,0,0,0-1.13-1,1.34,1.34,0,0,0-.44-.88,1.15,1.15,0,0,0-.83-.31,1.8,1.8,0,0,0-1-1.26c-1.34-.51-2.35.6-2.84,1.14l-.22.22a5.57,5.57,0,0,1-.71,0H23.3a.33.33,0,0,1-.24-.1.41.41,0,0,1-.11-.29V15.84a.42.42,0,0,1,.11-.3.32.32,0,0,1,.22-.1h2.6a.32.32,0,0,1,.27.12.35.35,0,0,1,.09.31,2.61,2.61,0,0,0,1.62,2.75,2.33,2.33,0,0,0,2.22-.35l1.82-1.08.25-.15h0l.1-.07a.85.85,0,0,1,.17-.08.72.72,0,0,1,.33,0,.7.7,0,0,1,.22.07,1,1,0,0,1,.23.21l0,.05.27.31,2.55,3,2.23,2.62A1.29,1.29,0,0,1,38.71,24.18Z"/><path class="cls-3" d="M38.69,22.76l-.5-.59-.31-.36-.17-.2-.5-.59-.75-.88L33.6,16.79a.23.23,0,0,0-.07-.07.8.8,0,0,0-.13-.13.71.71,0,0,0-.14-.1.81.81,0,0,0-.27-.11.76.76,0,0,0-.16,0,1.27,1.27,0,0,0-.39,0,.75.75,0,0,0-.27.08l-.15.08-.11.07h0l-.52.32-.31.19h0a3.37,3.37,0,0,0-.32.19l-.92.54a1.85,1.85,0,0,1-1.78.3,2,2,0,0,1-.57-.33,1.78,1.78,0,0,1-.32-.35,2.3,2.3,0,0,1-.23-.4h0a.83.83,0,0,1-.08-.22,2,2,0,0,1-.09-.9.91.91,0,0,0-.21-.71.82.82,0,0,0-.64-.29H23.3a.82.82,0,0,0-.57.24h0a.87.87,0,0,0-.27.66v6.36a.9.9,0,0,0,.24.64h0a.83.83,0,0,0,.59.26h.17a7.25,7.25,0,0,0,.81,0c.12,0,.21-.08.35-.22l.15-.16.2-.21c.07-.06.13-.13.2-.2A1.74,1.74,0,0,1,27,21.69a1.29,1.29,0,0,1,.42.32,1.18,1.18,0,0,1,.31.75l0,.3h0l.3,0a.68.68,0,0,1,.64.16.86.86,0,0,1,.28.73l0,.3h0l.29,0a.76.76,0,0,1,.66.23l.07.09a1,1,0,0,1,.13.25s0,.05,0,.08,0,.13,0,.15l0,.27h0l.26-.05a1.44,1.44,0,0,1,1.2.42l.12.14a1.19,1.19,0,0,1,.09.15s0,0,0,0A.36.36,0,0,1,32,26a1.42,1.42,0,0,1,0,.79s0,0,0,0a3.3,3.3,0,0,1-.41.72l-.13.19h0l.17.14a.79.79,0,0,0,.29.17h0l.06,0,.1,0h0a.76.76,0,0,0,.16,0h.2a1.14,1.14,0,0,0,.55-.19l.08-.05.1-.08s0,0,0,0a.1.1,0,0,0,0-.05,1.2,1.2,0,0,0,.27-.54h.07s0,0,0,0h0l.14.08a1.2,1.2,0,0,0,1.2,0,1.08,1.08,0,0,0,.24-.18,1.06,1.06,0,0,0,.26-.34.92.92,0,0,0,.09-.23l0-.18h0a1.16,1.16,0,0,0,1.16,0,.94.94,0,0,0,.23-.16.7.7,0,0,0,.2-.22,1.66,1.66,0,0,0,.24-.59h0a1.21,1.21,0,0,0,1.19-.05,1.45,1.45,0,0,0,.27-.22,1.62,1.62,0,0,0,.39-.8A1.79,1.79,0,0,0,38.69,22.76ZM37.33,24.7l-.39-.34h0l0,.52c0,.76-.35.92-.45,1a.72.72,0,0,1-.54.08,1,1,0,0,1-.46-.37l-.15-.2h0l-.37.18,0,.2a.87.87,0,0,1-.33,1.05.7.7,0,0,1-.57.08,1.4,1.4,0,0,1-.51-.33l0,0-.06-.05-.21-.17L33,26.06h0l.08.62a1,1,0,0,1-.08.57.67.67,0,0,1-.2.26,1,1,0,0,1-.35.15l-.13,0h0l-.11,0h0l-.11,0h0a1.51,1.51,0,0,0,.12-.2,2,2,0,0,0,.27-.67V26s0,0,0-.07a1.22,1.22,0,0,0-.25-.46,1.15,1.15,0,0,0-.27-.27,1.91,1.91,0,0,0-.58-.35,1.74,1.74,0,0,0-.66-.14h0a1,1,0,0,0-.05-.16,1.22,1.22,0,0,0-.83-.79.85.85,0,0,0-.24-.05h0a2.1,2.1,0,0,0-.06-.31,1.3,1.3,0,0,0-.37-.56,1.59,1.59,0,0,0-.42-.25,1.07,1.07,0,0,0-.41-.07h0l0-.14a1.77,1.77,0,0,0-1-1.11h0c-1.34-.51-2.35.6-2.84,1.14-.08.08-.17.18-.22.22a5.57,5.57,0,0,1-.71,0H23.3a.34.34,0,0,1-.23-.09L23,22.38a.3.3,0,0,1,0-.18V15.83a.42.42,0,0,1,.11-.3.32.32,0,0,1,.22-.1h2.6a.31.31,0,0,1,.17,0,.31.31,0,0,1,.11.09.21.21,0,0,1,.06.1.34.34,0,0,1,0,.2,2.67,2.67,0,0,0,1.63,2.76l.16.05a2.38,2.38,0,0,0,2-.41l1.82-1.08.25-.15h0l.1-.07a.85.85,0,0,1,.17-.08.72.72,0,0,1,.33,0l.12,0,.11.05a1,1,0,0,1,.23.21l0,.05.27.31,2.55,3,2.23,2.62a1.52,1.52,0,0,1,.38.68,1,1,0,0,1,0,.39,1,1,0,0,1-.41.66.72.72,0,0,1-.83,0Z"/><path class="cls-4" d="M33.55,27.15h0s0,0,0,0v9l-.27.17-.55.33,0,0c-.17-.09-.34-.2-.51-.31l-.27-.17-.07,0V28.06l.06,0,.1,0h0a.76.76,0,0,0,.16,0h.2a1.14,1.14,0,0,0,.55-.19l.08-.05.1-.08s0,0,0,0a.1.1,0,0,0,0-.05,1.2,1.2,0,0,0,.27-.54h.07s0,0,0,0Z"/><path class="cls-2" d="M32.17,27.43v.23l-.12,0A1.51,1.51,0,0,0,32.17,27.43Z"/><path class="cls-1" d="M38.71,24.18a1,1,0,0,1-.41.66.75.75,0,0,1-1-.14l-.39-.34,0,.52c0,.76-.35.92-.45,1a.72.72,0,0,1-1-.3l-.15-.2-.37.18,0,.2a.87.87,0,0,1-.33,1.05c-.44.26-.8,0-1.09-.26l0,0-.06-.05-.21-.17L33,26.06l.08.62a1,1,0,0,1-.08.57.67.67,0,0,1-.2.26,1,1,0,0,1-.35.15.61.61,0,0,1-.27,0v-.23a2,2,0,0,0,.27-.67V26s0-.05,0-.07a1.45,1.45,0,0,0-.26-.47,1.15,1.15,0,0,0-.27-.27,1.92,1.92,0,0,0-1.23-.48h0a1.26,1.26,0,0,0-1.13-1,1.34,1.34,0,0,0-.44-.88,1.15,1.15,0,0,0-.83-.31,1.8,1.8,0,0,0-1-1.26c-1.34-.51-2.35.6-2.84,1.14l-.22.22a5.57,5.57,0,0,1-.71,0H23.3a.33.33,0,0,1-.24-.1.41.41,0,0,1-.11-.29V15.84a.42.42,0,0,1,.11-.3.32.32,0,0,1,.22-.1h2.6a.32.32,0,0,1,.27.12.35.35,0,0,1,.09.31,2.61,2.61,0,0,0,1.62,2.75,2.33,2.33,0,0,0,2.22-.35l1.82-1.08.25-.15h0l.1-.07a.85.85,0,0,1,.17-.08.72.72,0,0,1,.33,0,.7.7,0,0,1,.22.07,1,1,0,0,1,.23.21l0,.05.27.31,2.55,3,2.23,2.62A1.29,1.29,0,0,1,38.71,24.18Z"/><path class="cls-2" d="M26.75,22.66a.62.62,0,0,0-.39-.14.6.6,0,0,0-.47.23l-.75.92a.61.61,0,0,0-.13.45.67.67,0,0,0,.22.42.63.63,0,0,0,.87-.1l.74-.92a.61.61,0,0,0,.13-.45A.64.64,0,0,0,26.75,22.66Zm1.47,1.11A.89.89,0,0,0,27,23.9l-.56.7a.86.86,0,1,0,1.34,1.09l.57-.7A.88.88,0,0,0,28.22,23.77Zm1.29,1.34a.86.86,0,0,0-1.21.13l-.35.42a.86.86,0,0,0,1.35,1.08l.34-.42A.86.86,0,0,0,29.51,25.11Zm1.38,1.09a.86.86,0,0,0-1.21.13l-.2.25a.86.86,0,0,0,1.34,1.08l.2-.25A.86.86,0,0,0,30.89,26.2Zm-4.14-3.54a.62.62,0,0,0-.39-.14.6.6,0,0,0-.47.23l-.75.92a.61.61,0,0,0-.13.45.67.67,0,0,0,.22.42.63.63,0,0,0,.87-.1l.74-.92a.61.61,0,0,0,.13-.45A.64.64,0,0,0,26.75,22.66Zm1.47,1.11A.89.89,0,0,0,27,23.9l-.56.7a.86.86,0,1,0,1.34,1.09l.57-.7A.88.88,0,0,0,28.22,23.77Zm1.29,1.34a.86.86,0,0,0-1.21.13l-.35.42a.86.86,0,0,0,1.35,1.08l.34-.42A.86.86,0,0,0,29.51,25.11Zm1.38,1.09a.86.86,0,0,0-1.21.13l-.2.25a.86.86,0,0,0,1.34,1.08l.2-.25A.86.86,0,0,0,30.89,26.2Zm0,0a.86.86,0,0,0-1.21.13l-.2.25a.86.86,0,0,0,1.34,1.08l.2-.25A.86.86,0,0,0,30.89,26.2Zm-1.25.12a.86.86,0,1,0-1.34-1.08l-.35.42a.86.86,0,0,0,1.35,1.08ZM28.35,25a.88.88,0,0,0-.13-1.22A.89.89,0,0,0,27,23.9l-.56.7a.86.86,0,1,0,1.34,1.09ZM27,23.07a.64.64,0,0,0-.22-.41.62.62,0,0,0-.39-.14.6.6,0,0,0-.47.23l-.75.92a.61.61,0,0,0-.13.45.67.67,0,0,0,.22.42.63.63,0,0,0,.87-.1l.74-.92A.61.61,0,0,0,27,23.07Z"/><path class="cls-3" d="M26.57,25.82a.87.87,0,0,0,1.21-.13l.57-.7a.88.88,0,0,0-.13-1.22A.89.89,0,0,0,27,23.9l-.56.7A.87.87,0,0,0,26.57,25.82Z"/><path class="cls-3" d="M29.48,26.58a.86.86,0,0,0,1.34,1.08l.2-.25a.86.86,0,0,0-1.34-1.08Z"/><path class="cls-3" d="M28,25.66a.86.86,0,0,0,1.35,1.08l.34-.42a.86.86,0,1,0-1.34-1.08Z"/><path class="cls-3" d="M26.1,24.44l.74-.92a.61.61,0,0,0,.13-.45.64.64,0,0,0-.22-.41.62.62,0,0,0-.39-.14.6.6,0,0,0-.47.23l-.75.92a.61.61,0,0,0-.13.45.67.67,0,0,0,.22.42A.63.63,0,0,0,26.1,24.44Z"/><path class="cls-3" d="M41.92,16.26a.52.52,0,0,0-.15-.41.47.47,0,0,0-.33-.14h-.09a4.77,4.77,0,0,1-1.61-.24c-1.83-.59-3.12-1.11-4.36-1.62l-1.49-.6-.36-.12a1.31,1.31,0,0,0-.27-.06,1.23,1.23,0,0,0-.27,0,1.58,1.58,0,0,0-.55.11l-.27.12-.27.15-.27.17c-.5.33-3.15,2.37-3.48,2.66a.45.45,0,0,0-.14.36.7.7,0,0,0,.06.3.43.43,0,0,0,.3.24,1.34,1.34,0,0,0,1-.3c.41-.28,2-1.32,2.52-1.64l.14-.09.13-.07a1.69,1.69,0,0,1,.27-.12,1.49,1.49,0,0,1,.43-.07H33a.86.86,0,0,1,.27,0l.27.12a2.16,2.16,0,0,1,.58.5l3.28,4L40,22.69a1.23,1.23,0,0,1,.69-.32h.75a.53.53,0,0,0,.53-.55V20.54C41.93,19.09,41.92,16.92,41.92,16.26Z"/><path class="cls-3" d="M47.43,10.78c-.71,9.39-3.93,15.79-7.75,20.14h0l-.51.56c-.17.19-.35.37-.53.55h0a23.87,23.87,0,0,1-2,1.83c-.3.26-.6.5-.9.73a26.26,26.26,0,0,1-2.21,1.55v-9s0,0,0,0l.14.08a1.2,1.2,0,0,0,1.2,0,1.08,1.08,0,0,0,.24-.18,1.06,1.06,0,0,0,.26-.34.92.92,0,0,0,.09-.23,1.16,1.16,0,0,0,0-.18,1.16,1.16,0,0,0,1.16,0,.94.94,0,0,0,.23-.16.7.7,0,0,0,.2-.22,1.51,1.51,0,0,0,.25-.59,1.21,1.21,0,0,0,1.19-.05,1.45,1.45,0,0,0,.27-.22,1.47,1.47,0,0,0,.4-.8,1.79,1.79,0,0,0-.52-1.49l-.51-.59-.31-.36-.17-.2-.5-.59-.74-.88-2.86-3.35h0a.14.14,0,0,0-.06-.07h0a.4.4,0,0,0-.13-.13.71.71,0,0,0-.14-.1.81.81,0,0,0-.27-.11.76.76,0,0,0-.16,0,1.27,1.27,0,0,0-.39,0,.75.75,0,0,0-.27.08l-.15.08-.11.07h0l-.52.32-.31.19h0a3.37,3.37,0,0,0-.32.19l-.92.54a1.85,1.85,0,0,1-1.78.3,2,2,0,0,1-.57-.33,1.78,1.78,0,0,1-.32-.35,3.18,3.18,0,0,1-.23-.4h0c0-.07-.05-.14-.08-.22a2.14,2.14,0,0,1-.08-.9.91.91,0,0,0-.21-.71h0a.82.82,0,0,0-.64-.29H23.3a.82.82,0,0,0-.57.24h0a.87.87,0,0,0-.27.66v6.36a.9.9,0,0,0,.24.64h0a.83.83,0,0,0,.59.26h.17a7.25,7.25,0,0,0,.81,0c.12,0,.21-.08.35-.22l.16-.16L25,22.5c.07-.06.13-.13.2-.2A1.74,1.74,0,0,1,27,21.69a1.29,1.29,0,0,1,.42.32,1.18,1.18,0,0,1,.31.75l0,.3h0l.3,0a.68.68,0,0,1,.64.16.86.86,0,0,1,.28.73l0,.3h0l.29,0a.76.76,0,0,1,.66.23l.07.09a1,1,0,0,1,.13.25s0,.05,0,.08,0,.13,0,.15l0,.27h0l.26-.05a1.44,1.44,0,0,1,1.2.42l.12.14a1.19,1.19,0,0,1,.09.15v.93a3.3,3.3,0,0,1-.41.72l-.13.19h0l.17.14a.79.79,0,0,0,.29.17h0v8.06l-1.12-.75a20.35,20.35,0,0,1-1.64-1.25L29,34.05c-.35-.29-.71-.59-1.06-.91l-.05,0c-.36-.33-.72-.68-1.07-1-.18-.18-.36-.37-.53-.56l-.18-.2h0L26,31.21c-.28-.29-.54-.6-.81-.92a1.84,1.84,0,0,1-.17-.22c-.2-.24-.4-.49-.59-.75C21.22,25,18.64,19.07,18,10.78c.85,0,1.76,0,2.65,0a34.44,34.44,0,0,0,5.51-.31,19.57,19.57,0,0,0,5.74-2v3.81l.14-.06.12,0a1.38,1.38,0,0,1,.27-.08A2,2,0,0,1,33,12a1.23,1.23,0,0,1,.27,0,1.26,1.26,0,0,1,.27,0h0V8.48a19.36,19.36,0,0,0,5.72,2,34.59,34.59,0,0,0,5.52.31C45.66,10.81,46.57,10.8,47.43,10.78Z"/><path class="cls-4" d="M30.89,26.2A.86.86,0,0,1,31,27.41l-.2.25a.86.86,0,0,1-1.34-1.08l.2-.25A.86.86,0,0,1,30.89,26.2Z"/><path class="cls-4" d="M29.51,25.11a.86.86,0,0,1,.13,1.21l-.34.42A.86.86,0,0,1,28,25.66l.35-.42A.86.86,0,0,1,29.51,25.11Z"/><path class="cls-4" d="M28.22,23.77A.88.88,0,0,1,28.35,25l-.57.7a.86.86,0,1,1-1.34-1.09l.56-.7A.89.89,0,0,1,28.22,23.77Z"/><path class="cls-4" d="M25.14,23.67l.75-.92a.6.6,0,0,1,.47-.23.62.62,0,0,1,.39.14.64.64,0,0,1,.22.41.61.61,0,0,1-.13.45l-.74.92a.63.63,0,0,1-.87.1.67.67,0,0,1-.22-.42A.61.61,0,0,1,25.14,23.67Z"/><path class="cls-2" d="M41.42,22.37h-.75a1.23,1.23,0,0,0-.69.32l-2.59-3.16-3.28-4a2.16,2.16,0,0,0-.58-.5l-.27-.12a.86.86,0,0,0-.27,0h-.12a1.49,1.49,0,0,0-.43.07,1.69,1.69,0,0,0-.27.12l-.13.07-.14.09c-.51.32-2.11,1.36-2.52,1.64a1.34,1.34,0,0,1-1,.3.43.43,0,0,1-.3-.24.7.7,0,0,1-.06-.3.45.45,0,0,1,.14-.36c.33-.29,3-2.33,3.48-2.66l.27-.17.27-.15.27-.12a1.58,1.58,0,0,1,.55-.11,1.23,1.23,0,0,1,.27,0,1.31,1.31,0,0,1,.27.06l.36.12,1.49.6c1.24.51,2.53,1,4.36,1.62a4.77,4.77,0,0,0,1.61.24h.09a.47.47,0,0,1,.33.14.52.52,0,0,1,.15.41c0,.66,0,2.83,0,4.28v1.28A.53.53,0,0,1,41.42,22.37Z"/><path class="cls-4" d="M42,21.82a.53.53,0,0,1-.53.55h-.75a1.23,1.23,0,0,0-.69.32l-2.59-3.16-3.28-4a2.16,2.16,0,0,0-.58-.5l-.27-.12a.86.86,0,0,0-.27,0h-.12a1.49,1.49,0,0,0-.43.07,1.69,1.69,0,0,0-.27.12l-.13.07-.14.09c-.51.32-2.11,1.36-2.52,1.64a1.34,1.34,0,0,1-1,.3.43.43,0,0,1-.3-.24.7.7,0,0,1-.06-.3.45.45,0,0,1,.14-.36c.33-.29,3-2.33,3.48-2.66l.27-.17.27-.15.27-.12a1.58,1.58,0,0,1,.55-.11,1.23,1.23,0,0,1,.27,0,1.31,1.31,0,0,1,.27.06l.36.12,1.49.6c1.24.51,2.53,1,4.36,1.62a4.77,4.77,0,0,0,1.61.24h.09a.47.47,0,0,1,.33.14.52.52,0,0,1,.15.41c0,.66,0,2.83,0,4.28Z"/><path class="cls-2" d="M62.84,31l-15.28,0H33.84l1.91,3.69h0l.38.73.38.73h0l1.28,2.49,0,0,.51,1,.49.95,0,0h0L40.09,43l3-1.43,1.05-.51,4.42-2.15-5.39,3,5,5.68L62.58,32.12l0,0,1-1.13,0,0ZM43.12,36.59l-2.47.54h0l.22.24.7.8c-.27.27-.54.52-.82.77h0L40,38.14l-.72-.82,0,0-.75-.86L40.66,36l.06,0,1.91-.41,1.74-.38h0c-.42.5-.83,1-1.27,1.42h0Z"/><path class="cls-2" d="M40.65,37.13h0l.22.24Zm0,0h0l.22.24Zm6.15-5.07H35.7l.95,1.83h0l.39.74.38.74h0l1.26,2.44,0,0,.52,1,.49,1,0,0h0l.87,1.69,1.69-.82L40.74,39l0,0L40,38.14l-.72-.82,0,0-.75-.86L40.66,36l.06,0,1.91-.41,1.74-.38h0L58.6,32.08Zm-6.16,5.07.22.24-.21-.24Zm6.16-5.07H35.7l.95,1.83h0l.39.74.38.74h0l1.26,2.44,0,0,.52,1,.49,1,0,0h0l.87,1.69,1.69-.82L40.74,39l0,0L40,38.14l-.72-.82,0,0-.75-.86L40.66,36l.06,0,1.91-.41,1.74-.38h0L58.6,32.08Z"/><path class="cls-1" d="M62.84,31l-15.28,0H33.84l1.91,3.69h0l.38.73.38.73h0l1.28,2.49,0,0,.51,1,.49.95,0,0h0L40.09,43l3-1.43,1.05-.51,4.42-2.15-5.39,3,5,5.68L62.58,32.12l0,0,1-1.13,0,0ZM40.6,41.53l-.87-1.69h0l0,0-.49-1-.52-1,0,0-1.26-2.44h0L37,34.63l-.39-.74h0l-.95-1.83H46.8l11.8,0L44.41,35.16h0l-1.74.38L40.72,36l-.06,0-2.13.46.75.86,0,0,.72.82.69.79,0,0,1.55,1.76Zm2.75-1.33-1.78-2h0l-.7-.8-.22-.24h0l2.47-.54h0l13.86-3Zm4.84,5.73-3.26-3.7,13.94-7.77Z"/><polygon class="cls-4" points="56.99 33.58 43.35 40.2 43.34 40.2 41.56 38.17 40.86 37.37 40.64 37.13 40.65 37.13 43.12 36.59 43.13 36.59 56.99 33.58"/></g></g></svg>