<svg xmlns="http://www.w3.org/2000/svg" viewBox="0 0 73.72 74.52"><defs><style>.cls-1{fill:#236092;}.cls-2{fill:none;}.cls-3{fill:#fff;}.cls-4{fill:#ffc629;}</style></defs><g id="Layer_2" data-name="Layer 2"><g id="Layer_1-2" data-name="Layer 1"><path class="cls-1" d="M12.85,57.79a2.45,2.45,0,0,1-2.75,2.14H9.23L9,62.45H7.53l.71-6.76h2.41C12.26,55.69,13,56.48,12.85,57.79Zm-2.65.94c.68,0,1.16-.24,1.24-.94s-.51-.89-1.24-.89H9.55l-.2,1.83Z"/><path class="cls-1" d="M18.65,57.73A2.11,2.11,0,0,1,17,59.65l1.48,2.8H16.7l-1.25-2.63H15l-.27,2.63H13.33l.7-6.76h2.51C18.17,55.69,18.79,56.4,18.65,57.73ZM16,58.61c.71,0,1.13-.2,1.2-.88s-.35-.83-1.14-.83h-.76l-.18,1.71Z"/><path class="cls-1" d="M23.16,55.59c1.84,0,3,1,2.72,3.33s-1.5,3.63-3.71,3.63c-1.85,0-2.92-1.06-2.67-3.38S20.93,55.59,23.16,55.59Zm-.76,5.75c1.26,0,1.83-.61,2-2.42.17-1.62-.27-2.12-1.44-2.12s-1.83.58-2,2.37C20.8,60.77,21.23,61.34,22.4,61.34Z"/><path class="cls-1" d="M29.79,56.9l-.57,5.55H27.78l.57-5.55h-2l.13-1.21H31.9l-.13,1.21Z"/><path class="cls-1" d="M33.71,58.36H36l-.14,1.21H33.57l-.17,1.67h3l-.12,1.21h-4.4l.71-6.76H36.9l-.13,1.21H33.86Z"/><path class="cls-1" d="M42.76,57.1a4.1,4.1,0,0,0-1.53-.3c-1.41,0-2.09.7-2.26,2.32s.22,2.22,1.73,2.22a4.33,4.33,0,0,0,1.82-.46L42.6,62a5.49,5.49,0,0,1-2.38.56c-2.11,0-2.9-1.59-2.71-3.43s1.32-3.53,3.6-3.53a5.49,5.49,0,0,1,2,.35Z"/><path class="cls-1" d="M46.94,56.9l-.57,5.55H44.93l.57-5.55h-2l.13-1.21h5.39l-.13,1.21Z"/><path class="cls-1" d="M51.14,55.69l-.71,6.76H49l.71-6.76Z"/><path class="cls-1" d="M55.66,55.59c1.85,0,3,1,2.73,3.33s-1.51,3.63-3.72,3.63c-1.84,0-2.91-1.06-2.67-3.38S53.43,55.59,55.66,55.59Zm-.75,5.75c1.26,0,1.82-.61,2-2.42.17-1.62-.27-2.12-1.44-2.12s-1.82.58-2,2.37C53.3,60.77,53.74,61.34,54.91,61.34Z"/><path class="cls-1" d="M63.71,59.87l.45-4.18H65.6l-.71,6.76H63.4l-2.27-4.14-.42,4.14H59.26L60,55.69h1.46Z"/><path class="cls-1" d="M1.61,67.66l1,2.78,1.67-2.78H5.84L3.18,71.93l-.26,2.49H1.48l.26-2.49L0,67.66Z"/><path class="cls-1" d="M9.28,67.56c1.84,0,3,1,2.72,3.33s-1.5,3.63-3.71,3.63c-1.85,0-2.92-1.06-2.67-3.38S7.05,67.56,9.28,67.56Zm-.76,5.75c1.26,0,1.83-.61,2-2.42.17-1.62-.27-2.12-1.44-2.12s-1.83.58-2,2.37C6.92,72.74,7.35,73.31,8.52,73.31Z"/><path class="cls-1" d="M13,71.89l.45-4.23h1.44l-.42,4c-.13,1.27.2,1.67,1.21,1.67s1.4-.4,1.53-1.67l.42-4h1.45l-.45,4.23a2.74,2.74,0,0,1-3.08,2.63C13.67,74.52,12.87,73.54,13,71.89Z"/><path class="cls-1" d="M27.53,69.07a4.05,4.05,0,0,0-1.53-.3c-1.41,0-2.09.7-2.26,2.32s.22,2.22,1.73,2.22a4.33,4.33,0,0,0,1.82-.46L27.37,74a5.49,5.49,0,0,1-2.38.56c-2.11,0-2.9-1.59-2.71-3.43s1.32-3.53,3.6-3.53a5.49,5.49,0,0,1,2,.35Z"/><path class="cls-1" d="M29.93,72.7l-.68,1.72H27.69l3.06-6.79h1.58L34,74.42H32.42l-.34-1.72Zm1.9-1.11-.47-2.28-.94,2.28Z"/><path class="cls-1" d="M39.17,71.84l.44-4.18h1.44l-.7,6.76h-1.5l-2.27-4.14-.42,4.14H34.72l.7-6.76h1.47Z"/><path class="cls-1" d="M47.6,68.87,47,74.42H45.59l.57-5.55h-2l.14-1.21h5.39l-.13,1.21Z"/><path class="cls-1" d="M55,69.7a2.1,2.1,0,0,1-1.66,1.92l1.48,2.8H53l-1.24-2.63h-.42l-.27,2.63H49.65l.71-6.76h2.51C54.49,67.66,55.12,68.37,55,69.7Zm-2.61.88c.71,0,1.13-.2,1.2-.88s-.35-.83-1.14-.83h-.75l-.18,1.71Z"/><path class="cls-1" d="M56,71.89l.45-4.23h1.44l-.42,4c-.14,1.27.2,1.67,1.21,1.67s1.4-.4,1.53-1.67l.42-4h1.44l-.44,4.23a2.74,2.74,0,0,1-3.09,2.63C56.61,74.52,55.81,73.54,56,71.89Z"/><path class="cls-1" d="M62.92,72.88a5.17,5.17,0,0,0,2,.43c.62,0,1-.31,1.06-.74s-.3-.74-1-1c-1.12-.4-2.11-.75-2-2.12s1.38-1.91,2.74-1.91a5.37,5.37,0,0,1,1.92.37l-.42,1.22a4.28,4.28,0,0,0-1.63-.38c-.6,0-1,.22-1.09.7s.48.71,1.12.91c1.19.38,1.9,1,1.79,2.09a2.4,2.4,0,0,1-2.58,2,5.35,5.35,0,0,1-2.37-.5Z"/><path class="cls-1" d="M71.61,68.87,71,74.42H69.6l.57-5.55h-2l.14-1.21h5.39l-.13,1.21Z"/><path class="cls-2" d="M33.43,37.61l-.2-.2.09.08Z"/><path class="cls-1" d="M64.31,4.13c-1.51,0-3.2.06-4.84.06a47,47,0,0,1-7.24-.39A26.38,26.38,0,0,1,43.38.33L42.83,0l-.56.33A26.38,26.38,0,0,1,33.42,3.8a46.84,46.84,0,0,1-7.24.39c-1.63,0-3.33,0-4.83-.06l-1.18,0v.05l1.18,0c1.5,0,3.2.06,4.83.06a45.59,45.59,0,0,0,7.24-.39A26.14,26.14,0,0,0,42.27.38l.56-.33.55.33a26.14,26.14,0,0,0,8.85,3.46,45.76,45.76,0,0,0,7.24.39c1.64,0,3.33,0,4.84-.06l1.17,0V4.1Z"/><path class="cls-1" d="M26.51,28.45l0,0c-.1-.17-.2-.34-.29-.52Z"/><path class="cls-1" d="M30,33.67a39,39,0,0,1-3.44-5.22l.39.67.58,1c.16.24.31.48.46.72.27.4.53.81.8,1.19,0,0,0,0,0,0l0,.05.45.62c.15.2.29.4.45.6Z"/><path class="cls-1" d="M21.45,14.6c-.23-1.11-.43-2.26-.61-3.45C21,12.34,21.22,13.49,21.45,14.6Z"/><path class="cls-1" d="M23.16,20.89q-.5-1.47-.93-3C22.51,18.91,22.82,19.91,23.16,20.89Z"/><path class="cls-1" d="M25.36,26.25l0,.09c-.08-.15-.16-.31-.23-.47L25,25.49c.09.19.18.38.28.57Z"/><path class="cls-1" d="M35.93,39.9l0,0h0Z"/><path class="cls-1" d="M24.39,24.13h0l.21.5c-.22-.5-.43-1-.63-1.51C24.11,23.47,24.25,23.8,24.39,24.13Z"/><path class="cls-1" d="M65.47,4.15l-1.16,0c-1.51,0-3.2.06-4.84.06a45.76,45.76,0,0,1-7.24-.39A26.14,26.14,0,0,1,43.38.38L42.83.05l-.56.33a26.14,26.14,0,0,1-8.85,3.46,45.59,45.59,0,0,1-7.24.39c-1.63,0-3.33,0-4.83-.06l-1.18,0,.07,1.17c.08,1.38.2,2.72.36,4,.07.62.15,1.23.24,1.82.18,1.19.38,2.34.61,3.45s.5,2.21.78,3.26.6,2.05.93,3c.26.77.54,1.52.82,2.24.1.26.21.52.31.77a2.29,2.29,0,0,1,.1.23h0l.12.28s0,.07,0,.11.17.39.26.58l.06.13,0,.07a1.42,1.42,0,0,0,.08.18c.09.19.18.38.28.57l.09.19,0,.09.42.82.09.19.24.44.34.62,0,0c.06.1.11.2.17.29s.11.2.17.29a.41.41,0,0,0,0,.09,2,2,0,0,1,.11.2h0c.05.09.1.19.16.28l.28.47,0,0,.22.35c.09.12.16.25.24.37l.26.38.17.26h0c.11.19.24.37.36.55,0,0,0,0,0,0l0,.05.27.37h0l.18.24c.06.07.11.15.16.22l.06.08h0l0,0,.05.07.06.07.1.12.26.36.26.33h0l.26.31,0,0c.11.13.2.27.32.4l.11.14a.69.69,0,0,1,.11.13h0l.07.08h0l.74.85c.2.23.41.46.62.68.45.48.9.94,1.36,1.39l.82.77a41,41,0,0,0,7,5.2c.11.07.34.18.63.32l.46.22.47-.22a6.65,6.65,0,0,0,.64-.33,41.63,41.63,0,0,0,5-3.44l.9-.74c.34-.29.67-.58,1-.89s.56-.51.83-.78c.53-.5,1-1,1.56-1.58s.86-.93,1.28-1.43a39,39,0,0,0,2.39-3.1c.26-.37.51-.75.76-1.13a45.19,45.19,0,0,0,5.07-10.77,53.6,53.6,0,0,0,1.83-7.51c.19-1.07.35-2.18.48-3.32.16-1.29.28-2.63.36-4l.07-1.17ZM33.23,37.41l.09.08.11.12Zm26-27.4c-.55,9.54-3.57,16.23-7.3,20.92-.31.39-.62.77-.94,1.13a28.83,28.83,0,0,1-3.45,3.32c-.31.25-.61.49-.91.71a29.7,29.7,0,0,1-3,2l-.46.24-.36.16-.35-.17L42,38.08a29.26,29.26,0,0,1-4-2.82c-.29-.23-.57-.47-.86-.73l-.3-.28c-.43-.39-.86-.81-1.29-1.25l-.12-.13c-.11-.12-.23-.24-.33-.36l-.55-.6-.59-.7c-.3-.36-.59-.74-.88-1.13l-.54-.76C29.38,24.75,26.93,18.51,26.43,10l-.05-.88.88,0c1.09,0,2.32,0,3.51,0A33.92,33.92,0,0,0,36,8.91a18.93,18.93,0,0,0,6.4-2.51l.42-.25.41.25a19,19,0,0,0,6.41,2.51,33.84,33.84,0,0,0,5.24.28c1.18,0,2.41,0,3.5,0l.88,0Z"/><path class="cls-1" d="M24.82,25.11l.06.13-.06-.12Z"/><path class="cls-1" d="M25,25.49c.09.19.18.38.28.57l-.1-.19Z"/><path class="cls-1" d="M26.49,28.41c-.1-.17-.2-.34-.29-.52l-.29-.54L25.72,27a.37.37,0,0,0,0-.11l-.27-.55.42.82C26,27.59,26.26,28,26.49,28.41Z"/><path class="cls-1" d="M35.93,39.9l0,0h0Z"/><path class="cls-3" d="M32.57,15.84a.87.87,0,0,1,.27-.66h0a.87.87,0,0,0-.27.66V22.2a.9.9,0,0,0,.24.64h0a.9.9,0,0,1-.24-.64Zm5.32,6.93a1.16,1.16,0,0,0-.32-.75,1.18,1.18,0,0,1,.31.75l0,.3h0Zm1,.41h0a.86.86,0,0,1,.28.73l0,.3h0l0-.3A.86.86,0,0,0,38.86,23.18ZM40.31,25a.74.74,0,0,0,0-.15c0,.07,0,.13,0,.15l0,.27h0ZM42,16.6h0Zm-.09,9.17a1.19,1.19,0,0,1,.09.15v.93a3.3,3.3,0,0,1-.41.72l-.13.19h0l.13-.19a3.3,3.3,0,0,0,.41-.72v-.93A.44.44,0,0,0,41.92,25.77Zm1.74,1.39h0l.14.08Z"/><path class="cls-1" d="M39.19,34.13a20.35,20.35,0,0,0,1.64,1.25C40.29,35,39.74,34.58,39.19,34.13Z"/><path class="cls-4" d="M58.39,9.15c-1.09,0-2.32,0-3.5,0a33.84,33.84,0,0,1-5.24-.28A19,19,0,0,1,43.24,6.4l-.41-.25-.42.25A18.93,18.93,0,0,1,36,8.91a33.92,33.92,0,0,1-5.24.28c-1.19,0-2.42,0-3.51,0l-.88,0,.05.88c.5,8.5,2.95,14.74,6.11,19.31l.54.76c.29.39.58.77.88,1.13l.59.7.55.6c.1.12.22.24.33.36l.12.13c.43.44.86.86,1.29,1.25l.3.28c.29.26.57.5.86.73a29.26,29.26,0,0,0,4,2.82l.46.23.35.17.36-.16.46-.24a29.7,29.7,0,0,0,3-2c.3-.22.6-.46.91-.71A28.83,28.83,0,0,0,51,32.06c.32-.36.63-.74.94-1.13,3.73-4.69,6.75-11.38,7.3-20.92l.05-.88Zm-8.6,21.78c-.34.39-.69.76-1,1.12a24.13,24.13,0,0,1-2,1.84c-.3.26-.6.5-.9.73a26.26,26.26,0,0,1-2.21,1.55l-1.7,0-1.12-.75a20.35,20.35,0,0,1-1.64-1.25l-.08-.07c-.35-.29-.71-.59-1.06-.91l0,0c-.36-.33-.72-.68-1.07-1-.18-.18-.36-.37-.53-.56l-.18-.2h0l-.07-.08c-.28-.29-.54-.6-.81-.92a1.84,1.84,0,0,1-.17-.22c-.2-.24-.4-.49-.59-.75-3.24-4.28-5.82-10.25-6.45-18.54.85,0,1.76,0,2.65,0a34.44,34.44,0,0,0,5.51-.31,19.57,19.57,0,0,0,5.74-2l.27-.15.27-.15L42.83,8l.28.16.27.14c.09.06.18.1.27.15a19.36,19.36,0,0,0,5.72,2,34.59,34.59,0,0,0,5.52.31c.88,0,1.79,0,2.65,0C56.83,20.18,53.61,26.58,49.79,30.93Z"/><path class="cls-3" d="M39.19,34.13c.55.45,1.1.87,1.64,1.25A20.35,20.35,0,0,1,39.19,34.13Z"/><path class="cls-4" d="M42,26.82s0,0,0,0v-.93s0,0,0,0a.36.36,0,0,1,0,.09A1.42,1.42,0,0,1,42,26.82Z"/><path class="cls-4" d="M43.65,8.49v3.62h0a1.26,1.26,0,0,0-.27,0,1.23,1.23,0,0,0-.27,0,2,2,0,0,0-.55.07,1.38,1.38,0,0,0-.27.08l-.12,0L42,12.3V8.49l.27-.15.27-.15L42.83,8l.28.16.27.14C43.47,8.4,43.56,8.44,43.65,8.49Z"/><polygon class="cls-3" points="42.12 28.11 42.12 28.13 42.11 28.11 42.12 28.11"/><path class="cls-2" d="M48.83,24.18a1,1,0,0,1-.41.66.75.75,0,0,1-1-.14l-.39-.34,0,.52c0,.76-.35.92-.45,1a.72.72,0,0,1-1-.3l-.15-.2-.37.18.05.2a.87.87,0,0,1-.33,1.05c-.44.26-.8,0-1.09-.26l0,0-.06-.05-.21-.17-.27-.22.08.62a1,1,0,0,1-.08.57.67.67,0,0,1-.2.26,1,1,0,0,1-.35.15.61.61,0,0,1-.27,0l-.12,0a1.51,1.51,0,0,0,.12-.2,2,2,0,0,0,.27-.67V26s0-.05,0-.07a1.45,1.45,0,0,0-.26-.47,1.15,1.15,0,0,0-.27-.27,1.92,1.92,0,0,0-1.23-.48h0a1.26,1.26,0,0,0-1.13-1,1.34,1.34,0,0,0-.44-.88,1.15,1.15,0,0,0-.83-.31,1.8,1.8,0,0,0-1-1.26c-1.34-.51-2.35.6-2.84,1.14-.08.08-.17.18-.22.22a5.57,5.57,0,0,1-.71,0h-.17a.33.33,0,0,1-.24-.1.41.41,0,0,1-.11-.29V15.84a.42.42,0,0,1,.11-.3.32.32,0,0,1,.22-.1H36a.32.32,0,0,1,.27.12.35.35,0,0,1,.09.31A2.61,2.61,0,0,0,38,18.62a2.33,2.33,0,0,0,2.22-.35L42,17.19l.25-.15h0l.1-.07a.85.85,0,0,1,.17-.08.72.72,0,0,1,.33,0,.7.7,0,0,1,.22.07,1,1,0,0,1,.23.21l0,.05.27.31,2.55,3,2.23,2.62A1.29,1.29,0,0,1,48.83,24.18Z"/><path class="cls-2" d="M48.8,22.77l-.5-.59L48,21.82l-.17-.2-.5-.59-.75-.88L43.71,16.8a.23.23,0,0,0-.07-.07.8.8,0,0,0-.13-.13.71.71,0,0,0-.14-.1.81.81,0,0,0-.27-.11.76.76,0,0,0-.16,0,1.27,1.27,0,0,0-.39,0,.75.75,0,0,0-.27.08l-.15.08L42,16.6h0l-.52.32-.31.19h0a3.37,3.37,0,0,0-.32.19l-.92.54a1.85,1.85,0,0,1-1.78.3,2,2,0,0,1-.57-.33,1.78,1.78,0,0,1-.32-.35,2.3,2.3,0,0,1-.23-.4h0a.83.83,0,0,1-.08-.22,2,2,0,0,1-.09-.9.91.91,0,0,0-.21-.71.82.82,0,0,0-.64-.29H33.41a.82.82,0,0,0-.57.24h0a.87.87,0,0,0-.27.66V22.2a.9.9,0,0,0,.24.64h0a.83.83,0,0,0,.59.26h.17a7.25,7.25,0,0,0,.81,0c.12,0,.21-.08.35-.22l.15-.16.2-.21.2-.2a1.74,1.74,0,0,1,1.87-.61,1.29,1.29,0,0,1,.42.32,1.18,1.18,0,0,1,.31.75l0,.3h0l.3-.05a.68.68,0,0,1,.64.16.86.86,0,0,1,.28.73l0,.3h0l.29,0a.76.76,0,0,1,.66.23l.07.09a1,1,0,0,1,.13.25s0,0,0,.08,0,.13,0,.15l0,.27h0l.26-.05a1.44,1.44,0,0,1,1.2.42l.12.14a1.19,1.19,0,0,1,.09.15s0,0,0,0a.36.36,0,0,1,0,.09,1.42,1.42,0,0,1,0,.79s0,0,0,0a3.3,3.3,0,0,1-.41.72l-.13.19h0l.17.14a.79.79,0,0,0,.29.17h0l.06,0,.1,0h0a.76.76,0,0,0,.16,0h.2A1.14,1.14,0,0,0,43,28l.08,0,.1-.08s0,0,0-.05a.1.1,0,0,0,0-.05,1.2,1.2,0,0,0,.27-.54h.07s0,0,0,0h0l.14.08a1.2,1.2,0,0,0,1.2,0,1.08,1.08,0,0,0,.24-.18,1.06,1.06,0,0,0,.26-.34.92.92,0,0,0,.09-.23l0-.18h0a1.16,1.16,0,0,0,1.16,0,.94.94,0,0,0,.23-.16.7.7,0,0,0,.2-.22,1.66,1.66,0,0,0,.24-.59h0a1.21,1.21,0,0,0,1.19,0,1.45,1.45,0,0,0,.27-.22,1.62,1.62,0,0,0,.39-.8A1.79,1.79,0,0,0,48.8,22.77Zm0,1.41a1,1,0,0,1-.41.66.75.75,0,0,1-1-.14L47,24.36l0,.52c0,.76-.35.92-.45,1a.72.72,0,0,1-1-.3l-.15-.2-.37.18,0,.2a.87.87,0,0,1-.33,1.05c-.44.26-.8,0-1.09-.26l0,0-.06-.05-.21-.17-.27-.22.08.62a1,1,0,0,1-.08.57.67.67,0,0,1-.2.26,1,1,0,0,1-.35.15.61.61,0,0,1-.27,0l-.12,0a1.51,1.51,0,0,0,.12-.2,2,2,0,0,0,.27-.67V26s0-.05,0-.07a1.45,1.45,0,0,0-.26-.47,1.15,1.15,0,0,0-.27-.27,1.92,1.92,0,0,0-1.23-.48h0a1.26,1.26,0,0,0-1.13-1,1.34,1.34,0,0,0-.44-.88,1.15,1.15,0,0,0-.83-.31,1.8,1.8,0,0,0-1-1.26c-1.34-.51-2.35.6-2.84,1.14-.08.08-.17.18-.22.22a5.57,5.57,0,0,1-.71,0h-.17a.33.33,0,0,1-.24-.1.41.41,0,0,1-.11-.29V15.84a.42.42,0,0,1,.11-.3.32.32,0,0,1,.22-.1H36a.32.32,0,0,1,.27.12.35.35,0,0,1,.09.31A2.61,2.61,0,0,0,38,18.62a2.33,2.33,0,0,0,2.22-.35L42,17.19l.25-.15h0l.1-.07a.85.85,0,0,1,.17-.08.72.72,0,0,1,.33,0,.7.7,0,0,1,.22.07,1,1,0,0,1,.23.21l0,.05.27.31,2.55,3,2.23,2.62A1.29,1.29,0,0,1,48.82,24.18Z"/><path class="cls-4" d="M43.66,27.16h0v9l-.27.17-.55.33,0,0c-.17-.09-.34-.2-.51-.31L42,36.17l-.07,0V28.07l.06,0,.1,0h0a.76.76,0,0,0,.16,0h.2A1.14,1.14,0,0,0,43,28l.08,0,.1-.08s0,0,0-.05a.1.1,0,0,0,0-.05,1.2,1.2,0,0,0,.27-.54h.07s0,0,0,0Z"/><path class="cls-3" d="M42.29,27.43v.23l-.12,0A1.51,1.51,0,0,0,42.29,27.43Z"/><path class="cls-1" d="M48.83,24.18a1,1,0,0,1-.41.66.75.75,0,0,1-1-.14l-.39-.34,0,.52c0,.76-.35.92-.45,1a.72.72,0,0,1-1-.3l-.15-.2-.37.18.05.2a.87.87,0,0,1-.33,1.05c-.44.26-.8,0-1.09-.26l0,0-.06-.05-.21-.17-.27-.22.08.62a1,1,0,0,1-.08.57.67.67,0,0,1-.2.26,1,1,0,0,1-.35.15.61.61,0,0,1-.27,0v-.23a2,2,0,0,0,.27-.67V26s0-.05,0-.07a1.45,1.45,0,0,0-.26-.47,1.15,1.15,0,0,0-.27-.27,1.92,1.92,0,0,0-1.23-.48h0a1.26,1.26,0,0,0-1.13-1,1.34,1.34,0,0,0-.44-.88,1.15,1.15,0,0,0-.83-.31,1.8,1.8,0,0,0-1-1.26c-1.34-.51-2.35.6-2.84,1.14-.08.08-.17.18-.22.22a5.57,5.57,0,0,1-.71,0h-.17a.33.33,0,0,1-.24-.1.41.41,0,0,1-.11-.29V15.84a.42.42,0,0,1,.11-.3.32.32,0,0,1,.22-.1H36a.32.32,0,0,1,.27.12.35.35,0,0,1,.09.31A2.61,2.61,0,0,0,38,18.62a2.33,2.33,0,0,0,2.22-.35L42,17.19l.25-.15h0l.1-.07a.85.85,0,0,1,.17-.08.72.72,0,0,1,.33,0,.7.7,0,0,1,.22.07,1,1,0,0,1,.23.21l0,.05.27.31,2.55,3,2.23,2.62A1.29,1.29,0,0,1,48.83,24.18Z"/><path class="cls-3" d="M36.86,22.66a.62.62,0,0,0-.39-.14.6.6,0,0,0-.47.23l-.75.92a.61.61,0,0,0-.13.45.67.67,0,0,0,.22.42.63.63,0,0,0,.87-.1l.74-.92a.61.61,0,0,0,.13-.45A.64.64,0,0,0,36.86,22.66Zm1.47,1.11a.89.89,0,0,0-1.22.13l-.56.7a.86.86,0,1,0,1.34,1.09l.57-.7A.88.88,0,0,0,38.33,23.77Zm1.29,1.34a.86.86,0,0,0-1.21.13l-.35.42a.86.86,0,0,0,1.35,1.08l.34-.42A.86.86,0,0,0,39.62,25.11ZM41,26.2a.86.86,0,0,0-1.21.13l-.2.25a.86.86,0,1,0,1.34,1.08l.2-.25A.86.86,0,0,0,41,26.2Zm-4.14-3.54a.62.62,0,0,0-.39-.14.6.6,0,0,0-.47.23l-.75.92a.61.61,0,0,0-.13.45.67.67,0,0,0,.22.42.63.63,0,0,0,.87-.1l.74-.92a.61.61,0,0,0,.13-.45A.64.64,0,0,0,36.86,22.66Zm1.47,1.11a.89.89,0,0,0-1.22.13l-.56.7a.86.86,0,1,0,1.34,1.09l.57-.7A.88.88,0,0,0,38.33,23.77Zm1.29,1.34a.86.86,0,0,0-1.21.13l-.35.42a.86.86,0,0,0,1.35,1.08l.34-.42A.86.86,0,0,0,39.62,25.11ZM41,26.2a.86.86,0,0,0-1.21.13l-.2.25a.86.86,0,1,0,1.34,1.08l.2-.25A.86.86,0,0,0,41,26.2Zm0,0a.86.86,0,0,0-1.21.13l-.2.25a.86.86,0,1,0,1.34,1.08l.2-.25A.86.86,0,0,0,41,26.2Zm-1.25.12a.86.86,0,1,0-1.34-1.08l-.35.42a.86.86,0,0,0,1.35,1.08ZM38.46,25a.88.88,0,0,0-.13-1.22.89.89,0,0,0-1.22.13l-.56.7a.86.86,0,1,0,1.34,1.09Zm-1.38-1.92a.64.64,0,0,0-.22-.41.62.62,0,0,0-.39-.14.6.6,0,0,0-.47.23l-.75.92a.61.61,0,0,0-.13.45.67.67,0,0,0,.22.42.63.63,0,0,0,.87-.1l.74-.92A.61.61,0,0,0,37.08,23.07Z"/><path class="cls-2" d="M36.68,25.82a.87.87,0,0,0,1.21-.13l.57-.7a.88.88,0,0,0-.13-1.22.89.89,0,0,0-1.22.13l-.56.7A.87.87,0,0,0,36.68,25.82Z"/><path class="cls-2" d="M39.59,26.58a.86.86,0,1,0,1.34,1.08l.2-.25a.86.86,0,1,0-1.34-1.08Z"/><path class="cls-2" d="M38.06,25.66a.86.86,0,0,0,1.35,1.08l.34-.42a.86.86,0,1,0-1.34-1.08Z"/><path class="cls-2" d="M36.21,24.44l.74-.92a.61.61,0,0,0,.13-.45.64.64,0,0,0-.22-.41.62.62,0,0,0-.39-.14.6.6,0,0,0-.47.23l-.75.92a.61.61,0,0,0-.13.45.67.67,0,0,0,.22.42A.63.63,0,0,0,36.21,24.44Z"/><path class="cls-2" d="M52,16.26a.52.52,0,0,0-.15-.41.47.47,0,0,0-.33-.14h-.09a4.77,4.77,0,0,1-1.61-.24c-1.83-.59-3.12-1.11-4.36-1.62L44,13.25l-.36-.12a1.31,1.31,0,0,0-.27-.06,1.23,1.23,0,0,0-.27,0,1.58,1.58,0,0,0-.55.11l-.27.12-.27.15-.27.17c-.5.33-3.15,2.37-3.48,2.66a.45.45,0,0,0-.14.36.7.7,0,0,0,.06.3.43.43,0,0,0,.3.24,1.34,1.34,0,0,0,1-.3c.41-.28,2-1.32,2.52-1.64l.14-.09.13-.07a1.69,1.69,0,0,1,.27-.12,1.49,1.49,0,0,1,.43-.07h.12a.86.86,0,0,1,.27,0l.27.12a2.16,2.16,0,0,1,.58.5l3.28,4,2.59,3.16a1.23,1.23,0,0,1,.69-.32h.75a.53.53,0,0,0,.53-.55V20.54C52,19.09,52,16.92,52,16.26Z"/><path class="cls-2" d="M54.89,10.82a34.59,34.59,0,0,1-5.52-.31,19.36,19.36,0,0,1-5.72-2v3.62h0a1.26,1.26,0,0,0-.27,0,1.23,1.23,0,0,0-.27,0,2,2,0,0,0-.55.07,1.38,1.38,0,0,0-.27.08l-.12,0L42,12.3V8.49a19.57,19.57,0,0,1-5.74,2,34.44,34.44,0,0,1-5.51.31c-.89,0-1.8,0-2.65,0,.63,8.29,3.21,14.26,6.45,18.54.19.26.39.51.59.75a1.84,1.84,0,0,0,.17.22c.27.32.53.63.81.92l.07.08h0l.18.2c.17.19.35.38.53.56.35.36.71.71,1.07,1l0,0c.35.32.71.62,1.06.91l.08.07a20.35,20.35,0,0,0,1.64,1.25l1.12.75V28.07h0a.79.79,0,0,1-.29-.17l-.17-.14h0l.13-.19a3.3,3.3,0,0,0,.41-.72v-.93a1.19,1.19,0,0,0-.09-.15l-.12-.14a1.44,1.44,0,0,0-1.2-.42l-.26.05h0l0-.27s0-.08,0-.15,0-.05,0-.08a1,1,0,0,0-.13-.25l-.07-.09a.76.76,0,0,0-.66-.23l-.29,0h0l0-.3a.86.86,0,0,0-.28-.73.68.68,0,0,0-.64-.16l-.3.05h0l0-.3a1.18,1.18,0,0,0-.31-.75,1.29,1.29,0,0,0-.42-.32,1.74,1.74,0,0,0-1.87.61l-.2.2-.19.21-.16.16c-.14.14-.23.21-.35.22a7.25,7.25,0,0,1-.81,0H33.4a.83.83,0,0,1-.59-.26h0a.9.9,0,0,1-.24-.64V15.84a.87.87,0,0,1,.27-.66h0a.82.82,0,0,1,.57-.24H36a.82.82,0,0,1,.64.29h0a.91.91,0,0,1,.21.71,2.14,2.14,0,0,0,.08.9c0,.08.05.15.08.22h0a3.18,3.18,0,0,0,.23.4,1.78,1.78,0,0,0,.32.35,2,2,0,0,0,.57.33,1.85,1.85,0,0,0,1.78-.3l.92-.54a3.37,3.37,0,0,1,.32-.19h0l.31-.19.52-.32h0l.11-.07.15-.08a.75.75,0,0,1,.27-.08,1.27,1.27,0,0,1,.39,0,.76.76,0,0,1,.16,0,.81.81,0,0,1,.27.11.71.71,0,0,1,.14.1.4.4,0,0,1,.13.13h0a.14.14,0,0,1,.06.07h0l2.86,3.35.74.88.5.59.17.2.31.36.51.59a1.79,1.79,0,0,1,.52,1.49,1.47,1.47,0,0,1-.4.8,1.45,1.45,0,0,1-.27.22,1.21,1.21,0,0,1-1.19,0,1.51,1.51,0,0,1-.25.59.7.7,0,0,1-.2.22.94.94,0,0,1-.23.16,1.16,1.16,0,0,1-1.16,0,1.16,1.16,0,0,1,0,.18.92.92,0,0,1-.09.23,1.06,1.06,0,0,1-.26.34,1.08,1.08,0,0,1-.24.18,1.2,1.2,0,0,1-1.2,0l-.14-.08v9a26.26,26.26,0,0,0,2.21-1.55c.3-.23.6-.47.9-.73a24.13,24.13,0,0,0,2-1.84c.36-.36.71-.73,1-1.12,3.82-4.35,7-10.75,7.75-20.14C56.68,10.81,55.77,10.82,54.89,10.82Z"/><path class="cls-4" d="M41,26.2a.86.86,0,0,1,.13,1.21l-.2.25a.86.86,0,1,1-1.34-1.08l.2-.25A.86.86,0,0,1,41,26.2Z"/><path class="cls-4" d="M39.62,25.11a.86.86,0,0,1,.13,1.21l-.34.42a.86.86,0,0,1-1.35-1.08l.35-.42A.86.86,0,0,1,39.62,25.11Z"/><path class="cls-4" d="M38.33,23.77A.88.88,0,0,1,38.46,25l-.57.7a.86.86,0,1,1-1.34-1.09l.56-.7A.89.89,0,0,1,38.33,23.77Z"/><path class="cls-4" d="M35.25,23.67l.75-.92a.6.6,0,0,1,.47-.23.62.62,0,0,1,.39.14.64.64,0,0,1,.22.41.61.61,0,0,1-.13.45l-.74.92a.63.63,0,0,1-.87.1.67.67,0,0,1-.22-.42A.61.61,0,0,1,35.25,23.67Z"/><path class="cls-3" d="M51.53,22.37h-.75a1.23,1.23,0,0,0-.69.32L47.5,19.53l-3.28-4a2.16,2.16,0,0,0-.58-.5l-.27-.12a.86.86,0,0,0-.27,0H43a1.49,1.49,0,0,0-.43.07,1.69,1.69,0,0,0-.27.12l-.13.07-.14.09c-.51.32-2.11,1.36-2.52,1.64a1.34,1.34,0,0,1-1,.3.43.43,0,0,1-.3-.24.7.7,0,0,1-.06-.3.45.45,0,0,1,.14-.36c.33-.29,3-2.33,3.48-2.66l.27-.17.27-.15.27-.12a1.58,1.58,0,0,1,.55-.11,1.23,1.23,0,0,1,.27,0,1.31,1.31,0,0,1,.27.06l.36.12,1.49.6c1.24.51,2.53,1,4.36,1.62a4.77,4.77,0,0,0,1.61.24h.09a.47.47,0,0,1,.33.14.52.52,0,0,1,.15.41c0,.66,0,2.83,0,4.28v1.28A.53.53,0,0,1,51.53,22.37Z"/><path class="cls-4" d="M52.06,21.82a.53.53,0,0,1-.53.55h-.75a1.23,1.23,0,0,0-.69.32L47.5,19.53l-3.28-4a2.16,2.16,0,0,0-.58-.5l-.27-.12a.86.86,0,0,0-.27,0H43a1.49,1.49,0,0,0-.43.07,1.69,1.69,0,0,0-.27.12l-.13.07-.14.09c-.51.32-2.11,1.36-2.52,1.64a1.34,1.34,0,0,1-1,.3.43.43,0,0,1-.3-.24.7.7,0,0,1-.06-.3.45.45,0,0,1,.14-.36c.33-.29,3-2.33,3.48-2.66l.27-.17.27-.15.27-.12a1.58,1.58,0,0,1,.55-.11,1.23,1.23,0,0,1,.27,0,1.31,1.31,0,0,1,.27.06l.36.12,1.49.6c1.24.51,2.53,1,4.36,1.62a4.77,4.77,0,0,0,1.61.24h.09a.47.47,0,0,1,.33.14.52.52,0,0,1,.15.41c0,.66,0,2.83,0,4.28Z"/><path class="cls-3" d="M37.21,29.33h-29L10.15,33l.38.73.38.74L12.19,37l0,0,.51,1,.49,1,0,0,1.26,2.44,3-1.43,1.05-.51L23,37.31l-5.39,3,5,5.68,7.37-7.92,3.32-3.57,1.11-1.2L37,30.5l0,0,.21-.23.83-.9,0,0Z"/><path class="cls-1" d="M37.21,29.33h-29L10.15,33l.38.73.38.74L12.19,37l0,0,.51,1,.49,1,0,0,1.26,2.44,3-1.43,1.05-.51L23,37.31l-5.39,3,5,5.68,7.37-7.92,3.32-3.57,1.11-1.2L37,30.5l0,0,.21-.23.83-.9,0,0ZM15,39.91l-.87-1.69,0,0-.49-.95-.52-1,0,0-1.26-2.44L11.44,33l-.39-.74-1-1.84H33l-1.34.29-1.85.4-5.08,1.11h0l-5.91,1.28h0L17,33.93l-1.91.41-.06,0-2.13.46.75.86,0,0,.72.82.69.79,0,0,1.55,1.76Zm2.75-1.33-1.78-2,0,0-.69-.78-.2-.23h0l.57-.12L17.48,35h.05l7.94-1.73,5.22-1.13.7-.15-.58.28L26.4,34.38ZM32.4,33.77,29.12,37.3l-6.53,7-3.26-3.7,8.43-4.7,4.34-2.42,1.17-.65Z"/><polygon class="cls-4" points="17.75 38.58 15.05 35.51 31.39 31.96 17.75 38.58"/></g></g></svg>