<svg xmlns="http://www.w3.org/2000/svg" viewBox="0 0 70.8 91.47"><defs><style>.cls-1{fill:#236092;}.cls-2{fill:#fff;}.cls-3{fill:#ffc629;}</style></defs><g id="Layer_2" data-name="Layer 2"><g id="Layer_1-2" data-name="Layer 1"><path class="cls-1" d="M21.48,50.1l-4,4.22h3.68L21,55.53H15.73l.13-1.3L19.78,50H16.46l.13-1.2h5Z"/><path class="cls-1" d="M24.41,48.79l-.71,6.74H22.26L23,48.79Z"/><path class="cls-1" d="M30.73,50.88A2.46,2.46,0,0,1,28,53h-.86l-.26,2.5H25.42l.7-6.74h2.41C30.14,48.79,30.86,49.57,30.73,50.88Zm-2.65.95c.68,0,1.16-.24,1.24-.95S28.81,50,28.08,50h-.65l-.19,1.84Z"/><path class="cls-1" d="M34.71,50l-.57,5.54H32.7L33.28,50h-2l.13-1.2h5.39L36.69,50Z"/><path class="cls-1" d="M42.24,50.82a2.1,2.1,0,0,1-1.66,1.92l1.48,2.79H40.29l-1.24-2.62h-.41l-.27,2.62H36.93l.7-6.74h2.51C41.76,48.79,42.38,49.5,42.24,50.82Zm-2.61.89c.71,0,1.13-.2,1.2-.89S40.48,50,39.7,50h-.76l-.18,1.72Z"/><path class="cls-1" d="M44.82,53.82l-.68,1.71H42.58l3.06-6.77h1.57l1.66,6.77H47.3L47,53.82Zm1.9-1.11-.47-2.27-.94,2.27Z"/><path class="cls-1" d="M51.62,51.41,54,48.79h1.78l-2.85,3,2.28,3.72H53.37L51.8,52.82l-.36.4-.24,2.31H49.76l.7-6.74H51.9Z"/><path class="cls-1" d="M.41,66a5.36,5.36,0,0,0,2,.43c.62,0,1-.31,1-.74s-.3-.73-.95-1c-1.12-.4-2.11-.75-2-2.11s1.38-1.91,2.73-1.91A5.43,5.43,0,0,1,5.18,61l-.43,1.22a4.23,4.23,0,0,0-1.62-.38c-.6,0-1,.22-1.1.7s.49.7,1.13.91c1.18.37,1.89,1,1.79,2.08a2.41,2.41,0,0,1-2.58,2A5.49,5.49,0,0,1,0,67.11Z"/><path class="cls-1" d="M6.24,65l.44-4.23H8.12l-.42,4C7.57,66,7.9,66.4,8.91,66.4s1.4-.4,1.53-1.66l.42-4H12.3L11.86,65a2.74,2.74,0,0,1-3.08,2.62C6.86,67.61,6.07,66.63,6.24,65Z"/><path class="cls-1" d="M18.53,62.85A2.46,2.46,0,0,1,15.79,65h-.87l-.26,2.5H13.22l.7-6.74h2.41C17.94,60.76,18.66,61.54,18.53,62.85Zm-2.65.95c.68,0,1.16-.24,1.24-.95S16.61,62,15.88,62h-.65L15,63.8Z"/><path class="cls-1" d="M21,63.43h2.32l-.13,1.2H20.89l-.17,1.67h3l-.12,1.2H19.16l.71-6.74h4.34L24.08,62H21.17Z"/><path class="cls-1" d="M30.3,62.79a2.12,2.12,0,0,1-1.66,1.93l1.48,2.78H28.35l-1.24-2.61H26.7l-.27,2.61H25l.7-6.74H28.2C29.82,60.76,30.45,61.47,30.3,62.79Zm-2.6.89c.7,0,1.12-.2,1.19-.89S28.54,62,27.76,62H27l-.18,1.71Z"/><path class="cls-1" d="M31.45,66a5.31,5.31,0,0,0,2,.43c.62,0,1-.31,1.06-.74s-.3-.73-1-1c-1.12-.4-2.1-.75-2-2.11s1.38-1.91,2.73-1.91a5.37,5.37,0,0,1,1.92.37l-.42,1.22a4.28,4.28,0,0,0-1.63-.38c-.6,0-1,.22-1.09.7s.48.7,1.13.91c1.17.37,1.89,1,1.78,2.08a2.4,2.4,0,0,1-2.58,2,5.53,5.53,0,0,1-2.37-.5Z"/><path class="cls-1" d="M42.45,62.85A2.46,2.46,0,0,1,39.7,65h-.87l-.26,2.5H37.13l.71-6.74h2.4C41.86,60.76,42.58,61.54,42.45,62.85Zm-2.65.95c.68,0,1.16-.24,1.24-.95S40.53,62,39.8,62h-.65L39,63.8Z"/><path class="cls-1" d="M48.39,62.79a2.12,2.12,0,0,1-1.66,1.93l1.48,2.78H46.44L45.2,64.89h-.41l-.27,2.61H43.08l.7-6.74h2.51C47.91,60.76,48.54,61.47,48.39,62.79Zm-2.6.89c.7,0,1.12-.2,1.19-.89S46.63,62,45.85,62h-.76l-.18,1.71Z"/><path class="cls-1" d="M51.56,60.76l-.71,6.74H49.41l.71-6.74Z"/><path class="cls-1" d="M57,64.94l.44-4.18h1.44l-.71,6.74H56.69l-2.26-4.12L54,67.5H52.56l.71-6.74h1.46Z"/><path class="cls-1" d="M65.45,64.48l-.27,2.57a5.23,5.23,0,0,1-2.43.56c-2.21,0-3-1.59-2.86-3.43a3.64,3.64,0,0,1,3.75-3.52,5.67,5.67,0,0,1,2.08.35l-.38,1.16a4.39,4.39,0,0,0-1.58-.3,2.21,2.21,0,0,0-2.41,2.31c-.15,1.49.37,2.22,1.88,2.22a3.69,3.69,0,0,0,.58,0l.2-1.88Z"/><path class="cls-1" d="M69,60.14a1.81,1.81,0,0,1,1.82,2,2.33,2.33,0,0,1-2.25,2,1.8,1.8,0,0,1-1.81-2A2.31,2.31,0,0,1,69,60.14Zm-.38,3.6a1.79,1.79,0,0,0,1.74-1.57,1.4,1.4,0,0,0-1.41-1.56,1.78,1.78,0,0,0-1.73,1.56A1.39,1.39,0,0,0,68.59,63.74Zm.3-2.74H68l-.25,2.35h.49l.1-.92h.14l.43.92h.61l-.5-1a.75.75,0,0,0,.58-.66C69.68,61.24,69.46,61,68.89,61Zm-.47,1,.06-.6h.27c.27,0,.42,0,.39.3s-.17.3-.42.3Z"/><path class="cls-1" d="M11.16,78.17a4.49,4.49,0,0,0,1.48.25c.95,0,1.56-.45,1.63-1.16.06-.5-.13-1.11-1.19-1.11a3.19,3.19,0,0,0-1.14.25l-.58-.2.42-3.47h4.08l-.12,1.1H13l-.17,1.32a3.35,3.35,0,0,1,.74-.11c1.45,0,2.24.79,2.1,2.17a2.81,2.81,0,0,1-3,2.37,5.56,5.56,0,0,1-1.79-.26S11.16,78.18,11.16,78.17Z"/><path class="cls-1" d="M18.42,79l.2-1.89H16.69l.13-1.23h1.93L19,74h1.31l-.2,1.9H22l-.13,1.23H19.93L19.72,79Z"/><path class="cls-1" d="M23.07,78.17a4.59,4.59,0,0,0,1.48.25c1,0,1.57-.45,1.64-1.16.06-.5-.14-1.11-1.19-1.11a3.1,3.1,0,0,0-1.14.25l-.58-.2.42-3.47h4.08l-.12,1.1H24.94l-.17,1.32a3.35,3.35,0,0,1,.74-.11c1.44,0,2.24.79,2.1,2.17a2.82,2.82,0,0,1-3,2.37,5.49,5.49,0,0,1-1.78-.26S23.07,78.18,23.07,78.17Z"/><path class="cls-1" d="M32.69,72.73l1,2.78,1.66-2.78h1.55L34.25,77,34,79.48H32.56L32.81,77l-1.73-4.26Z"/><path class="cls-1" d="M38.82,75.4h2.31L41,76.6H38.69l-.18,1.67h3l-.12,1.21H37l.71-6.75H42l-.13,1.21H39Z"/><path class="cls-1" d="M44.24,77.76l-.67,1.72H42l3.06-6.78h1.57l1.65,6.78H46.73l-.33-1.72Zm1.91-1.1-.48-2.28-.93,2.28Z"/><path class="cls-1" d="M54.5,74.76a2.12,2.12,0,0,1-1.66,1.93l1.48,2.79H52.55l-1.24-2.62h-.42l-.27,2.62H49.18l.71-6.75H52.4C54,72.73,54.64,73.44,54.5,74.76Zm-2.61.89c.71,0,1.13-.2,1.2-.89s-.35-.82-1.14-.82H51.2L51,75.65Z"/><path class="cls-1" d="M55.64,77.94a5.17,5.17,0,0,0,2,.43c.62,0,1-.3,1.05-.74s-.3-.73-1-1c-1.12-.41-2.11-.76-2-2.12s1.38-1.91,2.73-1.91a5.43,5.43,0,0,1,1.93.37L60,74.22a4.27,4.27,0,0,0-1.62-.39c-.6,0-1,.23-1.1.71s.49.7,1.13.91c1.18.37,1.9,1,1.79,2.08a2.41,2.41,0,0,1-2.58,2,5.49,5.49,0,0,1-2.37-.5Z"/><path class="cls-1" d="M14.69,84.7l.61,4.63,1.5-4.63h1.57l-2.53,6.77H14.28l-.64-4.21-1.52,4.21H10.56L9.46,84.7H11l.52,4.63,1.6-4.63Z"/><path class="cls-1" d="M20,89.73l-.67,1.71H17.79l3.06-6.77h1.57l1.65,6.77H22.51l-.33-1.71Zm1.9-1.11-.47-2.27-.94,2.27Z"/><path class="cls-1" d="M30.28,86.73a2.13,2.13,0,0,1-1.66,1.93l1.48,2.78H28.32l-1.23-2.62h-.42l-.27,2.62H25l.71-6.74h2.5C29.79,84.7,30.42,85.41,30.28,86.73Zm-2.61.89c.71,0,1.13-.2,1.2-.89s-.35-.82-1.14-.82H27l-.18,1.71Z"/><path class="cls-1" d="M36.62,86.73A2.13,2.13,0,0,1,35,88.66l1.48,2.78H34.66l-1.24-2.62H33l-.27,2.62H31.3L32,84.7h2.51C36.13,84.7,36.76,85.41,36.62,86.73ZM34,87.62c.7,0,1.12-.2,1.2-.89s-.36-.82-1.14-.82h-.76l-.18,1.71Z"/><path class="cls-1" d="M39.19,89.73l-.67,1.71H37L40,84.67h1.57l1.65,6.77H41.68l-.33-1.71Zm1.9-1.11-.47-2.27-.94,2.27Z"/><path class="cls-1" d="M48.57,88.88,49,84.7h1.44l-.71,6.74H48.26L46,87.32l-.42,4.12H44.13l.71-6.74H46.3Z"/><path class="cls-1" d="M54.54,85.91,54,91.44H52.53l.57-5.53h-2l.13-1.21h5.38l-.13,1.21Z"/><path class="cls-1" d="M58.64,84.7l1,2.78,1.66-2.78h1.56L60.21,89,60,91.44H58.51L58.77,89,57,84.7Z"/><path class="cls-2" d="M62.86.05,61.49,2.64l0,0L42.56,38.42l-12.07-8L39,22.21l-7.09,6.15-1.69,1.47L25.38,34,7.84,14.73,61.37.41,62.89,0Z"/><path class="cls-1" d="M7.84,14.73,25.38,34l4.79-4.13,1.69-1.47L39,22.21l-8.46,8.21,12.07,8L61.47,2.69l0,0L62.86.05l0,0L61.37.41ZM25.57,31,11.82,15.89,54.1,4.59l-34.87,18,9.06,6ZM30,27.14l-6.5-4.32L51.88,8.16Zm11.79,8.17L33.91,30.1,55.78,8.84Z"/><polygon class="cls-3" points="29.98 27.14 23.48 22.82 51.88 8.15 29.98 27.14"/></g></g></svg>