<svg xmlns="http://www.w3.org/2000/svg" viewBox="0 0 70.8 87.96"><defs><style>.cls-1{fill:#236092;}.cls-2{fill:#fff;}.cls-3{fill:#ffc629;}</style></defs><g id="Layer_2" data-name="Layer 2"><g id="Layer_1-2" data-name="Layer 1"><path class="cls-1" d="M21.48,46.58l-4,4.23h3.68L21,52H15.73l.13-1.31,3.92-4.23H16.46l.13-1.21h5Z"/><path class="cls-1" d="M24.41,45.27,23.7,52H22.26L23,45.27Z"/><path class="cls-1" d="M30.73,47.36A2.46,2.46,0,0,1,28,49.51h-.86L26.86,52H25.42l.7-6.75h2.41C30.14,45.27,30.86,46.05,30.73,47.36Zm-2.65,1c.68,0,1.16-.24,1.24-1s-.51-.88-1.24-.88h-.65l-.19,1.83Z"/><path class="cls-1" d="M34.71,46.48,34.14,52H32.7l.58-5.54h-2l.13-1.21h5.39l-.13,1.21Z"/><path class="cls-1" d="M42.24,47.3a2.11,2.11,0,0,1-1.66,1.93L42.06,52H40.29L39.05,49.4h-.41L38.37,52H36.93l.7-6.75h2.51C41.76,45.27,42.38,46,42.24,47.3Zm-2.61.89c.71,0,1.13-.2,1.2-.89s-.35-.82-1.13-.82h-.76l-.18,1.71Z"/><path class="cls-1" d="M44.82,50.3,44.14,52H42.58l3.06-6.78h1.57L48.87,52H47.3L47,50.3Zm1.9-1.1-.47-2.28-.94,2.28Z"/><path class="cls-1" d="M51.62,47.89,54,45.27h1.78l-2.85,3L55.19,52H53.37L51.8,49.3l-.36.4L51.2,52H49.76l.7-6.75H51.9Z"/><path class="cls-1" d="M.41,62.46a5.34,5.34,0,0,0,2,.42c.62,0,1-.3,1-.74s-.3-.73-.95-1c-1.12-.4-2.11-.76-2-2.12s1.38-1.91,2.73-1.91a5.43,5.43,0,0,1,1.93.37l-.43,1.22a4.23,4.23,0,0,0-1.62-.38c-.6,0-1,.22-1.1.7s.49.71,1.13.91C4.34,60.33,5.05,61,5,62a2.41,2.41,0,0,1-2.58,2.05A5.51,5.51,0,0,1,0,63.6Z"/><path class="cls-1" d="M6.24,61.47l.44-4.23H8.12l-.42,4c-.13,1.27.2,1.66,1.21,1.66s1.4-.39,1.53-1.66l.42-4H12.3l-.44,4.23a2.74,2.74,0,0,1-3.08,2.62C6.86,64.09,6.07,63.11,6.24,61.47Z"/><path class="cls-1" d="M18.53,59.34a2.45,2.45,0,0,1-2.74,2.14h-.87L14.66,64H13.22l.7-6.75h2.41C17.94,57.24,18.66,58,18.53,59.34Zm-2.65.94c.68,0,1.16-.24,1.24-.94.09-.85-.51-.89-1.24-.89h-.65L15,60.28Z"/><path class="cls-1" d="M21,59.91h2.32l-.13,1.21H20.89l-.17,1.66h3L23.55,64H19.16l.71-6.75h4.34l-.13,1.21H21.17Z"/><path class="cls-1" d="M30.3,59.27a2.11,2.11,0,0,1-1.66,1.93L30.12,64H28.35l-1.24-2.62H26.7L26.43,64H25l.7-6.75H28.2C29.82,57.24,30.45,58,30.3,59.27Zm-2.6.89c.7,0,1.12-.2,1.19-.89s-.35-.82-1.13-.82H27l-.18,1.71Z"/><path class="cls-1" d="M31.45,62.46a5.29,5.29,0,0,0,2,.42c.62,0,1-.3,1.06-.74s-.3-.73-1-1c-1.12-.4-2.1-.76-2-2.12s1.38-1.91,2.73-1.91a5.37,5.37,0,0,1,1.92.37l-.42,1.22a4.28,4.28,0,0,0-1.63-.38c-.6,0-1,.22-1.09.7s.48.71,1.13.91c1.17.37,1.89,1,1.78,2.08a2.4,2.4,0,0,1-2.58,2.05A5.54,5.54,0,0,1,31,63.6Z"/><path class="cls-1" d="M42.45,59.34a2.45,2.45,0,0,1-2.75,2.14h-.87L38.57,64H37.13l.71-6.75h2.4C41.86,57.24,42.58,58,42.45,59.34Zm-2.65.94c.68,0,1.16-.24,1.24-.94.09-.85-.51-.89-1.24-.89h-.65L39,60.28Z"/><path class="cls-1" d="M48.39,59.27a2.11,2.11,0,0,1-1.66,1.93L48.21,64H46.44L45.2,61.37h-.41L44.52,64H43.08l.7-6.75h2.51C47.91,57.24,48.54,58,48.39,59.27Zm-2.6.89c.7,0,1.12-.2,1.19-.89s-.35-.82-1.13-.82h-.76l-.18,1.71Z"/><path class="cls-1" d="M51.56,57.24,50.85,64H49.41l.71-6.75Z"/><path class="cls-1" d="M57,61.42l.44-4.18h1.44L58.18,64H56.69l-2.26-4.13L54,64H52.56l.71-6.75h1.46Z"/><path class="cls-1" d="M65.45,61l-.27,2.56a5.11,5.11,0,0,1-2.43.56c-2.21,0-3-1.58-2.86-3.43a3.64,3.64,0,0,1,3.75-3.52,5.67,5.67,0,0,1,2.08.35l-.38,1.16a4.39,4.39,0,0,0-1.58-.3,2.21,2.21,0,0,0-2.41,2.31c-.15,1.5.37,2.22,1.88,2.22a3.69,3.69,0,0,0,.58,0L64,61Z"/><path class="cls-1" d="M69,56.62a1.81,1.81,0,0,1,1.82,2,2.32,2.32,0,0,1-2.25,2,1.79,1.79,0,0,1-1.81-2A2.31,2.31,0,0,1,69,56.62Zm-.38,3.6a1.79,1.79,0,0,0,1.74-1.56,1.4,1.4,0,0,0-1.41-1.57,1.78,1.78,0,0,0-1.73,1.57A1.38,1.38,0,0,0,68.59,60.22Zm.3-2.74H68l-.25,2.36h.49l.1-.92h.14l.43.92h.61l-.5-1a.74.74,0,0,0,.58-.66C69.68,57.73,69.46,57.48,68.89,57.48Zm-.47,1,.06-.59h.27c.27,0,.42,0,.39.29s-.17.3-.42.3Z"/><path class="cls-1" d="M11.16,74.65a4.49,4.49,0,0,0,1.48.25c.95,0,1.56-.45,1.63-1.16.06-.5-.13-1.11-1.19-1.11a3.19,3.19,0,0,0-1.14.26l-.58-.2.42-3.48h4.08l-.12,1.11H13l-.17,1.31a3.19,3.19,0,0,1,.74-.1c1.45,0,2.24.78,2.1,2.16a2.81,2.81,0,0,1-3,2.37,5.88,5.88,0,0,1-1.79-.25S11.16,74.66,11.16,74.65Z"/><path class="cls-1" d="M18.42,75.49l.2-1.9H16.69l.13-1.23h1.93l.2-1.9h1.31l-.2,1.9H22l-.13,1.23H19.93l-.21,1.9Z"/><path class="cls-1" d="M23.07,74.65a4.59,4.59,0,0,0,1.48.25c1,0,1.57-.45,1.64-1.16.06-.5-.14-1.11-1.19-1.11a3.09,3.09,0,0,0-1.14.26l-.58-.2.42-3.48h4.08l-.12,1.11H24.94l-.17,1.31a3.19,3.19,0,0,1,.74-.1c1.44,0,2.24.78,2.1,2.16a2.82,2.82,0,0,1-3,2.37,5.81,5.81,0,0,1-1.78-.25S23.07,74.66,23.07,74.65Z"/><path class="cls-1" d="M32.69,69.21l1,2.78,1.66-2.78h1.55l-2.66,4.27L34,76H32.56l.25-2.49-1.73-4.26Z"/><path class="cls-1" d="M38.82,71.88h2.31L41,73.09H38.69l-.18,1.66h3L41.34,76H37l.71-6.75H42l-.13,1.21H39Z"/><path class="cls-1" d="M44.24,74.25,43.57,76H42l3.06-6.78h1.57L48.29,76H46.73l-.33-1.71Zm1.91-1.11-.48-2.28-.93,2.28Z"/><path class="cls-1" d="M54.5,71.25a2.11,2.11,0,0,1-1.66,1.92L54.32,76H52.55l-1.24-2.62h-.42L50.62,76H49.18l.71-6.75H52.4C54,69.21,54.64,69.93,54.5,71.25Zm-2.61.88c.71,0,1.13-.2,1.2-.88s-.35-.83-1.14-.83H51.2L51,72.13Z"/><path class="cls-1" d="M55.64,74.43a5.34,5.34,0,0,0,2,.42c.62,0,1-.3,1.05-.74s-.3-.73-1-1c-1.12-.4-2.11-.76-2-2.12s1.38-1.91,2.73-1.91a5.43,5.43,0,0,1,1.93.37L60,70.7a4.23,4.23,0,0,0-1.62-.38c-.6,0-1,.22-1.1.7s.49.71,1.13.91c1.18.37,1.9,1,1.79,2.09a2.41,2.41,0,0,1-2.58,2,5.51,5.51,0,0,1-2.37-.49Z"/><path class="cls-1" d="M14.69,81.18l.61,4.63,1.5-4.63h1.56L15.84,88H14.28l-.64-4.21L12.12,88H10.56l-1.1-6.78H11l.52,4.63,1.6-4.63Z"/><path class="cls-1" d="M20,86.22l-.68,1.71H17.78l3.06-6.78h1.58l1.65,6.78H22.51l-.34-1.71Zm1.9-1.11-.47-2.28-.94,2.28Z"/><path class="cls-1" d="M30.28,83.22a2.12,2.12,0,0,1-1.66,1.92l1.48,2.79H28.32l-1.24-2.62h-.41l-.27,2.62H25l.7-6.75h2.51C29.79,81.18,30.42,81.9,30.28,83.22Zm-2.61.88c.7,0,1.12-.2,1.2-.88s-.36-.83-1.14-.83H27l-.18,1.71Z"/><path class="cls-1" d="M36.61,83.22A2.11,2.11,0,0,1,35,85.14l1.48,2.79H34.66l-1.24-2.62H33l-.27,2.62H31.3l.7-6.75h2.51C36.13,81.18,36.76,81.9,36.61,83.22ZM34,84.1c.7,0,1.12-.2,1.2-.88s-.36-.83-1.14-.83h-.76l-.18,1.71Z"/><path class="cls-1" d="M39.19,86.22l-.68,1.71H37L40,81.15h1.57l1.65,6.78H41.68l-.34-1.71Zm1.9-1.11-.47-2.28-.94,2.28Z"/><path class="cls-1" d="M48.57,85.36,49,81.18h1.44l-.7,6.75H48.26L46,83.8l-.42,4.13H44.13l.7-6.75h1.46Z"/><path class="cls-1" d="M54.54,82.39,54,87.93H52.52l.58-5.54h-2l.14-1.21h5.38l-.13,1.21Z"/><path class="cls-1" d="M58.64,81.18l1,2.78,1.66-2.78h1.55L60.2,85.45,60,87.93H58.51l.25-2.49L57,81.18Z"/><path class="cls-2" d="M63.8,0,61.88,2.26l0,0L35.39,32.86l-10-10.5,10.09-6.1-8.3,4.4-2,1-5.6,2.95L6.89,2,62.26.06,63.84,0Z"/><path class="cls-1" d="M6.89,2,19.65,24.65l5.6-2.95,2-1,8.3-4.4-10.09,6.1,10,10.5L61.85,2.3l0,0L63.8,0l0,0L62.26.06Zm13.62,19.8L10.51,4l43.73-1.5-38,9.69,7.48,7.91ZM25.67,19l-5.36-5.67,31-7.9Zm9.65,10.62-6.48-6.85L54.92,7Z"/><polygon class="cls-3" points="25.67 19.04 20.31 13.37 51.28 5.47 25.67 19.04"/></g></g></svg>