<svg width="285" height="151" viewBox="0 0 285 151" fill="none" xmlns="http://www.w3.org/2000/svg">
<path d="M8.3893 145.24C7.2693 145.24 6.19597 145.093 5.1693 144.8C4.14264 144.493 3.31597 144.1 2.6893 143.62L3.7893 141.18C4.3893 141.607 5.09597 141.96 5.9093 142.24C6.73597 142.507 7.5693 142.64 8.4093 142.64C9.0493 142.64 9.56264 142.58 9.9493 142.46C10.3493 142.327 10.6426 142.147 10.8293 141.92C11.016 141.693 11.1093 141.433 11.1093 141.14C11.1093 140.767 10.9626 140.473 10.6693 140.26C10.376 140.033 9.9893 139.853 9.5093 139.72C9.0293 139.573 8.49597 139.44 7.9093 139.32C7.33597 139.187 6.75597 139.027 6.1693 138.84C5.59597 138.653 5.0693 138.413 4.5893 138.12C4.1093 137.827 3.71597 137.44 3.4093 136.96C3.11597 136.48 2.9693 135.867 2.9693 135.12C2.9693 134.32 3.18264 133.593 3.6093 132.94C4.0493 132.273 4.70264 131.747 5.5693 131.36C6.4493 130.96 7.5493 130.76 8.8693 130.76C9.7493 130.76 10.616 130.867 11.4693 131.08C12.3226 131.28 13.076 131.587 13.7293 132L12.7293 134.46C12.076 134.087 11.4226 133.813 10.7693 133.64C10.116 133.453 9.47597 133.36 8.8493 133.36C8.22264 133.36 7.7093 133.433 7.3093 133.58C6.9093 133.727 6.62264 133.92 6.4493 134.16C6.27597 134.387 6.1893 134.653 6.1893 134.96C6.1893 135.32 6.33597 135.613 6.6293 135.84C6.92264 136.053 7.3093 136.227 7.7893 136.36C8.2693 136.493 8.79597 136.627 9.3693 136.76C9.95597 136.893 10.536 137.047 11.1093 137.22C11.696 137.393 12.2293 137.627 12.7093 137.92C13.1893 138.213 13.576 138.6 13.8693 139.08C14.176 139.56 14.3293 140.167 14.3293 140.9C14.3293 141.687 14.1093 142.407 13.6693 143.06C13.2293 143.713 12.5693 144.24 11.6893 144.64C10.8226 145.04 9.72264 145.24 8.3893 145.24ZM24.5232 145.16C23.2565 145.16 22.2699 144.84 21.5632 144.2C20.8565 143.547 20.5032 142.58 20.5032 141.3V131.86H23.6232V141.26C23.6232 141.713 23.7432 142.067 23.9832 142.32C24.2232 142.56 24.5499 142.68 24.9632 142.68C25.4565 142.68 25.8765 142.547 26.2232 142.28L27.0632 144.48C26.7432 144.707 26.3565 144.88 25.9032 145C25.4632 145.107 25.0032 145.16 24.5232 145.16ZM18.8432 136.88V134.48H26.3032V136.88H18.8432ZM33.7793 149.04C33.2193 149.04 32.666 148.953 32.1193 148.78C31.5726 148.607 31.126 148.367 30.7793 148.06L31.9193 145.84C32.1593 146.053 32.4326 146.22 32.7393 146.34C33.0593 146.46 33.3726 146.52 33.6793 146.52C34.1193 146.52 34.466 146.413 34.7193 146.2C34.986 146 35.226 145.66 35.4393 145.18L35.9993 143.86L36.2393 143.52L40.0993 134.24H43.0993L38.2393 145.66C37.8926 146.527 37.4926 147.207 37.0393 147.7C36.5993 148.193 36.106 148.54 35.5593 148.74C35.026 148.94 34.4326 149.04 33.7793 149.04ZM35.6193 145.42L30.8193 134.24H34.0393L37.7593 143.24L35.6193 145.42ZM48.1724 145V130.16H51.2924V145H48.1724ZM63.3281 145.16C62.1014 145.16 61.0214 144.92 60.0881 144.44C59.1681 143.96 58.4547 143.307 57.9481 142.48C57.4414 141.64 57.1881 140.687 57.1881 139.62C57.1881 138.54 57.4347 137.587 57.9281 136.76C58.4347 135.92 59.1214 135.267 59.9881 134.8C60.8547 134.32 61.8347 134.08 62.9281 134.08C63.9814 134.08 64.9281 134.307 65.7681 134.76C66.6214 135.2 67.2947 135.84 67.7881 136.68C68.2814 137.507 68.5281 138.5 68.5281 139.66C68.5281 139.78 68.5214 139.92 68.5081 140.08C68.4947 140.227 68.4814 140.367 68.4681 140.5H59.7281V138.68H66.8281L65.6281 139.22C65.6281 138.66 65.5147 138.173 65.2881 137.76C65.0614 137.347 64.7481 137.027 64.3481 136.8C63.9481 136.56 63.4814 136.44 62.9481 136.44C62.4147 136.44 61.9414 136.56 61.5281 136.8C61.1281 137.027 60.8147 137.353 60.5881 137.78C60.3614 138.193 60.2481 138.687 60.2481 139.26V139.74C60.2481 140.327 60.3747 140.847 60.6281 141.3C60.8947 141.74 61.2614 142.08 61.7281 142.32C62.2081 142.547 62.7681 142.66 63.4081 142.66C63.9814 142.66 64.4814 142.573 64.9081 142.4C65.3481 142.227 65.7481 141.967 66.1081 141.62L67.7681 143.42C67.2747 143.98 66.6547 144.413 65.9081 144.72C65.1614 145.013 64.3014 145.16 63.3281 145.16ZM84.0893 148.88V130.16H86.9493V148.88H84.0893ZM108.125 145.24C107.005 145.24 105.932 145.093 104.905 144.8C103.879 144.493 103.052 144.1 102.425 143.62L103.525 141.18C104.125 141.607 104.832 141.96 105.645 142.24C106.472 142.507 107.305 142.64 108.145 142.64C108.785 142.64 109.299 142.58 109.685 142.46C110.085 142.327 110.379 142.147 110.565 141.92C110.752 141.693 110.845 141.433 110.845 141.14C110.845 140.767 110.699 140.473 110.405 140.26C110.112 140.033 109.725 139.853 109.245 139.72C108.765 139.573 108.232 139.44 107.645 139.32C107.072 139.187 106.492 139.027 105.905 138.84C105.332 138.653 104.805 138.413 104.325 138.12C103.845 137.827 103.452 137.44 103.145 136.96C102.852 136.48 102.705 135.867 102.705 135.12C102.705 134.32 102.919 133.593 103.345 132.94C103.785 132.273 104.439 131.747 105.305 131.36C106.185 130.96 107.285 130.76 108.605 130.76C109.485 130.76 110.352 130.867 111.205 131.08C112.059 131.28 112.812 131.587 113.465 132L112.465 134.46C111.812 134.087 111.159 133.813 110.505 133.64C109.852 133.453 109.212 133.36 108.585 133.36C107.959 133.36 107.445 133.433 107.045 133.58C106.645 133.727 106.359 133.92 106.185 134.16C106.012 134.387 105.925 134.653 105.925 134.96C105.925 135.32 106.072 135.613 106.365 135.84C106.659 136.053 107.045 136.227 107.525 136.36C108.005 136.493 108.532 136.627 109.105 136.76C109.692 136.893 110.272 137.047 110.845 137.22C111.432 137.393 111.965 137.627 112.445 137.92C112.925 138.213 113.312 138.6 113.605 139.08C113.912 139.56 114.065 140.167 114.065 140.9C114.065 141.687 113.845 142.407 113.405 143.06C112.965 143.713 112.305 144.24 111.425 144.64C110.559 145.04 109.459 145.24 108.125 145.24ZM126.219 145.16C125.312 145.16 124.519 144.96 123.839 144.56C123.159 144.16 122.626 143.553 122.239 142.74C121.866 141.913 121.679 140.873 121.679 139.62C121.679 138.353 121.859 137.313 122.219 136.5C122.579 135.687 123.099 135.08 123.779 134.68C124.459 134.28 125.272 134.08 126.219 134.08C127.232 134.08 128.139 134.313 128.939 134.78C129.752 135.233 130.392 135.873 130.859 136.7C131.339 137.527 131.579 138.5 131.579 139.62C131.579 140.753 131.339 141.733 130.859 142.56C130.392 143.387 129.752 144.027 128.939 144.48C128.139 144.933 127.232 145.16 126.219 145.16ZM119.859 148.88V134.24H122.839V136.44L122.779 139.64L122.979 142.82V148.88H119.859ZM125.679 142.6C126.199 142.6 126.659 142.48 127.059 142.24C127.472 142 127.799 141.66 128.039 141.22C128.292 140.767 128.419 140.233 128.419 139.62C128.419 138.993 128.292 138.46 128.039 138.02C127.799 137.58 127.472 137.24 127.059 137C126.659 136.76 126.199 136.64 125.679 136.64C125.159 136.64 124.692 136.76 124.279 137C123.866 137.24 123.539 137.58 123.299 138.02C123.059 138.46 122.939 138.993 122.939 139.62C122.939 140.233 123.059 140.767 123.299 141.22C123.539 141.66 123.866 142 124.279 142.24C124.692 142.48 125.159 142.6 125.679 142.6ZM142.588 145.16C141.441 145.16 140.421 144.92 139.528 144.44C138.648 143.96 137.948 143.307 137.428 142.48C136.921 141.64 136.668 140.687 136.668 139.62C136.668 138.54 136.921 137.587 137.428 136.76C137.948 135.92 138.648 135.267 139.528 134.8C140.421 134.32 141.441 134.08 142.588 134.08C143.721 134.08 144.734 134.32 145.628 134.8C146.521 135.267 147.221 135.913 147.728 136.74C148.234 137.567 148.488 138.527 148.488 139.62C148.488 140.687 148.234 141.64 147.728 142.48C147.221 143.307 146.521 143.96 145.628 144.44C144.734 144.92 143.721 145.16 142.588 145.16ZM142.588 142.6C143.108 142.6 143.574 142.48 143.988 142.24C144.401 142 144.728 141.66 144.968 141.22C145.208 140.767 145.328 140.233 145.328 139.62C145.328 138.993 145.208 138.46 144.968 138.02C144.728 137.58 144.401 137.24 143.988 137C143.574 136.76 143.108 136.64 142.588 136.64C142.068 136.64 141.601 136.76 141.188 137C140.774 137.24 140.441 137.58 140.188 138.02C139.948 138.46 139.828 138.993 139.828 139.62C139.828 140.233 139.948 140.767 140.188 141.22C140.441 141.66 140.774 142 141.188 142.24C141.601 142.48 142.068 142.6 142.588 142.6ZM154.373 145V134.24H157.353V137.28L156.933 136.4C157.253 135.64 157.767 135.067 158.473 134.68C159.18 134.28 160.04 134.08 161.053 134.08V136.96C160.92 136.947 160.8 136.94 160.693 136.94C160.587 136.927 160.473 136.92 160.353 136.92C159.5 136.92 158.807 137.167 158.273 137.66C157.753 138.14 157.493 138.893 157.493 139.92V145H154.373ZM171.479 145.16C170.213 145.16 169.226 144.84 168.519 144.2C167.813 143.547 167.459 142.58 167.459 141.3V131.86H170.579V141.26C170.579 141.713 170.699 142.067 170.939 142.32C171.179 142.56 171.506 142.68 171.919 142.68C172.413 142.68 172.833 142.547 173.179 142.28L174.019 144.48C173.699 144.707 173.313 144.88 172.859 145C172.419 145.107 171.959 145.16 171.479 145.16ZM165.799 136.88V134.48H173.259V136.88H165.799ZM189.255 148.88V130.16H192.115V148.88H189.255ZM213.291 145.24C212.171 145.24 211.098 145.093 210.071 144.8C209.044 144.493 208.218 144.1 207.591 143.62L208.691 141.18C209.291 141.607 209.998 141.96 210.811 142.24C211.638 142.507 212.471 142.64 213.311 142.64C213.951 142.64 214.464 142.58 214.851 142.46C215.251 142.327 215.544 142.147 215.731 141.92C215.918 141.693 216.011 141.433 216.011 141.14C216.011 140.767 215.864 140.473 215.571 140.26C215.278 140.033 214.891 139.853 214.411 139.72C213.931 139.573 213.398 139.44 212.811 139.32C212.238 139.187 211.658 139.027 211.071 138.84C210.498 138.653 209.971 138.413 209.491 138.12C209.011 137.827 208.618 137.44 208.311 136.96C208.018 136.48 207.871 135.867 207.871 135.12C207.871 134.32 208.084 133.593 208.511 132.94C208.951 132.273 209.604 131.747 210.471 131.36C211.351 130.96 212.451 130.76 213.771 130.76C214.651 130.76 215.518 130.867 216.371 131.08C217.224 131.28 217.978 131.587 218.631 132L217.631 134.46C216.978 134.087 216.324 133.813 215.671 133.64C215.018 133.453 214.378 133.36 213.751 133.36C213.124 133.36 212.611 133.433 212.211 133.58C211.811 133.727 211.524 133.92 211.351 134.16C211.178 134.387 211.091 134.653 211.091 134.96C211.091 135.32 211.238 135.613 211.531 135.84C211.824 136.053 212.211 136.227 212.691 136.36C213.171 136.493 213.698 136.627 214.271 136.76C214.858 136.893 215.438 137.047 216.011 137.22C216.598 137.393 217.131 137.627 217.611 137.92C218.091 138.213 218.478 138.6 218.771 139.08C219.078 139.56 219.231 140.167 219.231 140.9C219.231 141.687 219.011 142.407 218.571 143.06C218.131 143.713 217.471 144.24 216.591 144.64C215.724 145.04 214.624 145.24 213.291 145.24ZM231.385 145.16C230.478 145.16 229.685 144.96 229.005 144.56C228.325 144.16 227.791 143.553 227.405 142.74C227.031 141.913 226.845 140.873 226.845 139.62C226.845 138.353 227.025 137.313 227.385 136.5C227.745 135.687 228.265 135.08 228.945 134.68C229.625 134.28 230.438 134.08 231.385 134.08C232.398 134.08 233.305 134.313 234.105 134.78C234.918 135.233 235.558 135.873 236.025 136.7C236.505 137.527 236.745 138.5 236.745 139.62C236.745 140.753 236.505 141.733 236.025 142.56C235.558 143.387 234.918 144.027 234.105 144.48C233.305 144.933 232.398 145.16 231.385 145.16ZM225.025 148.88V134.24H228.005V136.44L227.945 139.64L228.145 142.82V148.88H225.025ZM230.845 142.6C231.365 142.6 231.825 142.48 232.225 142.24C232.638 142 232.965 141.66 233.205 141.22C233.458 140.767 233.585 140.233 233.585 139.62C233.585 138.993 233.458 138.46 233.205 138.02C232.965 137.58 232.638 137.24 232.225 137C231.825 136.76 231.365 136.64 230.845 136.64C230.325 136.64 229.858 136.76 229.445 137C229.031 137.24 228.705 137.58 228.465 138.02C228.225 138.46 228.105 138.993 228.105 139.62C228.105 140.233 228.225 140.767 228.465 141.22C228.705 141.66 229.031 142 229.445 142.24C229.858 142.48 230.325 142.6 230.845 142.6ZM242.633 145V134.24H245.753V145H242.633ZM244.193 132.74C243.62 132.74 243.153 132.573 242.793 132.24C242.433 131.907 242.253 131.493 242.253 131C242.253 130.507 242.433 130.093 242.793 129.76C243.153 129.427 243.62 129.26 244.193 129.26C244.767 129.26 245.233 129.42 245.593 129.74C245.953 130.047 246.133 130.447 246.133 130.94C246.133 131.46 245.953 131.893 245.593 132.24C245.247 132.573 244.78 132.74 244.193 132.74ZM252.449 145V134.24H255.429V137.28L255.009 136.4C255.329 135.64 255.842 135.067 256.549 134.68C257.256 134.28 258.116 134.08 259.129 134.08V136.96C258.996 136.947 258.876 136.94 258.769 136.94C258.662 136.927 258.549 136.92 258.429 136.92C257.576 136.92 256.882 137.167 256.349 137.66C255.829 138.14 255.569 138.893 255.569 139.92V145H252.449ZM264.804 145V134.24H267.924V145H264.804ZM266.364 132.74C265.79 132.74 265.324 132.573 264.964 132.24C264.604 131.907 264.424 131.493 264.424 131C264.424 130.507 264.604 130.093 264.964 129.76C265.324 129.427 265.79 129.26 266.364 129.26C266.937 129.26 267.404 129.42 267.764 129.74C268.124 130.047 268.304 130.447 268.304 130.94C268.304 131.46 268.124 131.893 267.764 132.24C267.417 132.573 266.95 132.74 266.364 132.74ZM279.019 145.16C277.753 145.16 276.766 144.84 276.059 144.2C275.353 143.547 274.999 142.58 274.999 141.3V131.86H278.119V141.26C278.119 141.713 278.239 142.067 278.479 142.32C278.719 142.56 279.046 142.68 279.459 142.68C279.953 142.68 280.373 142.547 280.719 142.28L281.559 144.48C281.239 144.707 280.853 144.88 280.399 145C279.959 145.107 279.499 145.16 279.019 145.16ZM273.339 136.88V134.48H280.799V136.88H273.339Z" fill="white"/>
<path fill-rule="evenodd" clip-rule="evenodd" d="M118 2H2V118H118V2ZM60.7773 75.3008L34.9238 10.5156H19.4844L60.4746 111.023L102.434 10.5156H86.9941L60.7773 75.3008Z" fill="white"/>
<path d="M252.125 13.5V96.3125H280.5V110H237.562V13.5H252.125Z" fill="white"/>
<path d="M185.188 59.75H225.062V62.9375C225.062 70.1875 224.208 76.6042 222.5 82.1875C220.833 87.3542 218.021 92.1875 214.062 96.6875C205.104 106.771 193.708 111.812 179.875 111.812C166.375 111.812 154.812 106.938 145.188 97.1875C135.562 87.3958 130.75 75.6458 130.75 61.9375C130.75 47.9375 135.646 36.0625 145.438 26.3125C155.229 16.5208 167.146 11.625 181.188 11.625C188.729 11.625 195.771 13.1667 202.312 16.25C208.562 19.3333 214.708 24.3333 220.75 31.25L210.375 41.1875C202.458 30.6458 192.812 25.375 181.438 25.375C171.229 25.375 162.667 28.8958 155.75 35.9375C148.833 42.8542 145.375 51.5208 145.375 61.9375C145.375 72.6875 149.229 81.5417 156.938 88.5C164.146 94.9583 171.958 98.1875 180.375 98.1875C187.542 98.1875 193.979 95.7708 199.688 90.9375C205.396 86.0625 208.583 80.2292 209.25 73.4375H185.188V59.75Z" fill="white"/>
<circle cx="272" cy="12" r="9" stroke="white" stroke-width="2"/>
<path d="M270.85 11.162H271.368C271.909 11.162 272.325 11.05 272.614 10.826C272.903 10.602 273.048 10.28 273.048 9.86C273.048 9.44 272.903 9.118 272.614 8.894C272.325 8.67 271.909 8.558 271.368 8.558H270.85V11.162ZM276.884 17H273.468L270.85 12.94V17H268.106V6.444H272.376C272.964 6.444 273.477 6.53267 273.916 6.71C274.355 6.878 274.714 7.11133 274.994 7.41C275.283 7.70867 275.498 8.054 275.638 8.446C275.787 8.838 275.862 9.258 275.862 9.706C275.862 10.5087 275.666 11.162 275.274 11.666C274.891 12.1607 274.322 12.4967 273.566 12.674L276.884 17Z" fill="white"/>
</svg>
